<svg width="96" height="62" viewBox="0 0 96 62" fill="none" xmlns="http://www.w3.org/2000/svg">
<mask id="path-1-inside-1_54:396" fill="white">
<path fill-rule="evenodd" clip-rule="evenodd" d="M0 31C8.04259 12.7445 26.2953 0 47.5246 0C68.7539 0 87.0066 12.7445 95.0492 31C87.0066 49.2555 68.7539 62 47.5246 62C26.2953 62 8.04259 49.2555 0 31Z"/>
</mask>
<path d="M0 31L-0.915127 30.5968L-1.09274 31L-0.915127 31.4032L0 31ZM95.0492 31L95.9643 31.4032L96.142 31L95.9643 30.5968L95.0492 31ZM0.915127 31.4032C8.80371 13.4972 26.7058 1 47.5246 1V-1C25.8847 -1 7.28147 11.9917 -0.915127 30.5968L0.915127 31.4032ZM47.5246 1C68.3434 1 86.2455 13.4972 94.1341 31.4032L95.9643 30.5968C87.7677 11.9917 69.1645 -1 47.5246 -1V1ZM94.1341 30.5968C86.2455 48.5028 68.3434 61 47.5246 61V63C69.1645 63 87.7677 50.0083 95.9643 31.4032L94.1341 30.5968ZM47.5246 61C26.7058 61 8.80371 48.5028 0.915127 30.5968L-0.915127 31.4032C7.28147 50.0083 25.8847 63 47.5246 63V61Z" fill="#17FFE3" mask="url(#path-1-inside-1_54:396)"/>
<circle cx="47.1636" cy="30.6396" r="25.814" stroke="#17FFE3"/>
<circle cx="47.1649" cy="35.6861" r="11.3953" fill="#17FFE3" stroke="#17FFE3"/>
</svg>
