<svg id="Layer_1" data-name="Layer 1" xmlns="http://www.w3.org/2000/svg" viewBox="0 0 198 42"><path d="M98.8,2.52h0c.18.42.46,1.06.82,1.87,1.35,3.09,3.79,8.67,6.1,14.08h0Zm0,0-.62-1.39A.91.91,0,0,0,97.3.55H93.81a1,1,0,0,0-.88.49l0,0m5.9,1.45L92.9,1.07m0,0v0m0,0v0m0,0-.63,1.41h0m.63-1.41-.63,1.41m0,0c-.88,2-4,9.12-6.87,16-.16.37-.31.73-.47,1.09-1.86,4.36-3.64,8.52-4.89,11.25h0M92.26,2.52,80,30.82m0,0c-1.14,2.55-1.29,5.68-1.29,8.8a1,1,0,0,0,.26.71,1,1,0,0,0,.71.26h0l4.68,0h.17M80,30.82l4.53,9.82m0,0,.13-.1m-.13.1.13-.1m0,0,.21-.15,0,0m-.24.18.24-.18m0,0,0,0m0,0,0,0m0,0,.06-.05.1-.08a.6.6,0,0,0,.18-.22.77.77,0,0,0,.07-.32c0-.79,0-2,.16-3.12a12,12,0,0,1,.63-3c.11-.23.2-.45.29-.67A9.75,9.75,0,0,1,87,31.67l0-.05m-2,8.72,2-8.72m0,0h17.08l0,.05a9.75,9.75,0,0,1,.53,1.17c.09.22.18.44.29.68h0c.73,1.54.79,3.61.79,6.14a1,1,0,0,0,.28.72,1.07,1.07,0,0,0,.74.25h4.63a1.07,1.07,0,0,0,.74-.25,1,1,0,0,0,.28-.72A21.9,21.9,0,0,0,111,30.82Zm24-.8-5.31-12.35ZM95.54,11.67h0c.21.5.44,1,.67,1.54,1.05,2.42,2.23,5.16,3.39,7.89h0c.26.58.49,1.17.73,1.76,0,.06,0,.12.07.17.26.64.52,1.28.8,1.9H89.86c.57-1.25,1.09-2.49,1.66-3.89h0l4-9.36,0,0Zm74.33,29.41h0a1.15,1.15,0,0,0,1.58.19l3.48-2.55h0a1.17,1.17,0,0,0,.45-.71,1.08,1.08,0,0,0-.27-.82l-1.07-1.42,0-.07v0l0-.08a10.88,10.88,0,0,0,2-6.26V12A11.56,11.56,0,0,0,164.28.6H127.17A11.56,11.56,0,0,0,115.43,12V29.3a11.55,11.55,0,0,0,11.74,11.34h37.11a10.67,10.67,0,0,0,4.46-.87s.06,0,.06,0a.22.22,0,0,1,.08.07h0Zm-6.18-19h0a1.15,1.15,0,0,0-.73-.42,1.25,1.25,0,0,0-.8.14l0,0,0,0-3.47,2.69a1.06,1.06,0,0,0-.44.73,1.1,1.1,0,0,0,.23.82h0l6,7.94H127.17a5,5,0,0,1-5.12-4.71V12a5,5,0,0,1,5.12-4.77h37.11A5,5,0,0,1,169.4,12V29.3a.08.08,0,0,1,0,.06.1.1,0,0,1,0,0,.08.08,0,0,1-.07,0s0,0-.06,0h0ZM7.35,7.2H74.92a1,1,0,0,0,.77-.32,1.11,1.11,0,0,0,.25-.75V1.57a1.11,1.11,0,0,0-.25-.75A1,1,0,0,0,74.92.5H1.8A1,1,0,0,0,.73,1.57v38a1.08,1.08,0,0,0,.3.78,1.08,1.08,0,0,0,.77.29H6.28a1.1,1.1,0,0,0,.78-.29,1.12,1.12,0,0,0,.29-.78V26.38a.35.35,0,0,1,0-.06H69a1.11,1.11,0,0,0,.75-.25,1,1,0,0,0,.32-.77V20.75A1,1,0,0,0,69,19.68H7.36a.35.35,0,0,1,0-.06Z" fill="none" stroke="#fff"/></svg>