<svg width="177" height="42" viewBox="0 0 177 42" fill="none" xmlns="http://www.w3.org/2000/svg">
<path d="M98.564 2.51713L98.5655 2.5204C98.7488 2.94162 99.0286 3.58087 99.3831 4.39056C100.736 7.48234 103.178 13.0593 105.488 18.4715L105.488 18.4711L98.564 2.51713ZM98.564 2.51713L97.9473 1.12748C97.8052 0.742275 97.4321 0.552124 97.0662 0.552124H93.5796C93.1771 0.552124 92.8757 0.76412 92.695 1.03567L92.6714 1.07106M98.564 2.51713L92.6714 1.07106M92.6714 1.07106L92.6542 1.10991M92.6714 1.07106L92.6542 1.10991M92.6542 1.10991L92.0297 2.51712L92.0283 2.52041M92.6542 1.10991L92.0283 2.52041M92.0283 2.52041C91.1432 4.55391 88.0724 11.6433 85.1577 18.4722C85.0014 18.8373 84.8456 19.2016 84.6903 19.5646C82.8267 23.9208 81.0485 28.0775 79.8024 30.8135L79.8008 30.8171M92.0283 2.52041L79.8008 30.8171M79.8008 30.8171C78.6598 33.3747 78.5085 36.4969 78.5085 39.6205C78.5085 39.8537 78.567 40.1205 78.7718 40.3256C78.9757 40.5299 79.2411 40.589 79.4737 40.5896C79.4748 40.5896 79.4758 40.5896 79.4768 40.5896L84.1548 40.6417L84.3248 40.6436M79.8008 30.8171L84.3248 40.6436M84.3248 40.6436L84.4607 40.5415M84.3248 40.6436L84.4607 40.5415M84.4607 40.5415L84.6689 40.3851L84.6973 40.3638M84.4607 40.5415L84.6973 40.3638M84.6973 40.3638L84.7224 40.3386M84.6973 40.3638L84.7224 40.3386M84.7224 40.3386C84.741 40.3199 84.7588 40.3051 84.7802 40.2886C84.7881 40.2825 84.8475 40.2388 84.8829 40.2084C84.9315 40.1666 85.0037 40.0963 85.0574 39.9888C85.1123 39.8788 85.1288 39.7689 85.1288 39.6726C85.1288 38.878 85.1673 37.71 85.2887 36.5452C85.4111 35.3707 85.6131 34.2499 85.92 33.5135C86.0261 33.2791 86.116 33.0584 86.2049 32.84C86.3581 32.4639 86.5085 32.0948 86.7344 31.6745L86.761 31.625M84.7224 40.3386L86.761 31.625M86.761 31.625C86.7615 31.625 86.7619 31.625 86.7624 31.625H103.833L103.859 31.6745C104.085 32.0948 104.236 32.4639 104.389 32.8401C104.479 33.0606 104.569 33.2836 104.677 33.5207L104.679 33.526C105.404 35.0746 105.465 37.1447 105.465 39.6726C105.465 39.9061 105.524 40.1835 105.749 40.3916C105.966 40.5918 106.244 40.6417 106.485 40.6417H111.117C111.358 40.6417 111.637 40.5918 111.853 40.3916C112.078 40.1834 112.137 39.9061 112.137 39.6726C112.137 36.5402 111.984 33.5831 110.796 30.8234L86.761 31.625ZM110.796 30.823L105.488 18.4722L110.796 30.823ZM95.3031 11.6672L95.3064 11.6748C95.5211 12.1702 95.744 12.6838 95.9734 13.2123C97.0242 15.6333 98.2113 18.3684 99.3635 21.1037L99.3635 21.1037L99.3665 21.1107C99.6232 21.6949 99.8588 22.2794 100.096 22.8672C100.12 22.9263 100.143 22.9855 100.167 23.0446C100.423 23.6791 100.683 24.3168 100.969 24.944H89.6248C90.1958 23.6944 90.7152 22.4457 91.283 21.0499C91.2835 21.0486 91.2841 21.0472 91.2846 21.0459L95.2803 11.6912C95.2889 11.6768 95.2969 11.6709 95.3013 11.6682C95.3019 11.6678 95.3025 11.6675 95.3031 11.6672ZM169.637 41.0772L169.639 41.0792C170.012 41.546 170.735 41.6468 171.217 41.2693L174.696 38.7209L174.709 38.7115L174.721 38.7014C174.919 38.5363 175.118 38.3046 175.163 37.9907C175.209 37.6678 175.075 37.3903 174.898 37.1746L173.83 35.7478C173.813 35.7179 173.805 35.6967 173.8 35.6829C173.795 35.6677 173.795 35.661 173.795 35.6594C173.795 35.6578 173.795 35.6512 173.8 35.6359C173.805 35.6211 173.815 35.5978 173.834 35.5642C175.081 33.7659 175.786 31.6397 175.786 29.3008V11.9451C175.786 5.65767 170.496 0.60424 164.045 0.60424H126.941C120.49 0.60424 115.2 5.65767 115.2 11.9451V29.3008C115.2 35.5883 120.49 40.6417 126.941 40.6417H164.045C165.707 40.6417 167.182 40.374 168.507 39.7686C168.549 39.7531 168.567 39.7581 168.569 39.7587C168.571 39.7592 168.6 39.7662 168.65 39.8276C168.65 39.8278 168.65 39.8281 168.65 39.8283L169.637 41.0772ZM163.455 22.0674L163.455 22.0673L163.447 22.0569C163.251 21.812 162.974 21.6826 162.713 21.6407C162.454 21.5992 162.161 21.6355 161.914 21.784L161.889 21.7995L161.865 21.8178L158.397 24.5131C158.128 24.6894 157.994 24.9754 157.961 25.2388C157.927 25.5118 157.992 25.8173 158.186 26.0634C158.187 26.0652 158.189 26.067 158.19 26.0688L164.208 34.0091C164.153 34.0115 164.099 34.0128 164.045 34.0128H126.941C124.109 34.0128 121.821 31.8553 121.821 29.3008V11.9451C121.821 9.38444 124.116 7.18102 126.941 7.18102H164.045C166.919 7.18102 169.165 9.38153 169.165 11.9451V29.3008C169.165 29.334 169.156 29.352 169.147 29.3639C169.136 29.3784 169.118 29.3928 169.093 29.4013C169.069 29.4096 169.046 29.4096 169.029 29.4048C169.015 29.401 168.993 29.3917 168.969 29.3606C168.968 29.3601 168.968 29.3595 168.968 29.359L163.455 22.0674ZM7.12027 7.20222C7.12027 7.19599 7.1204 7.19033 7.12061 7.18522C7.13828 7.18285 7.16198 7.18102 7.19271 7.18102H74.688C74.9662 7.18102 75.2554 7.09818 75.4629 6.85835C75.6583 6.63255 75.7084 6.34968 75.7084 6.10771V1.57331C75.7084 1.33134 75.6583 1.04847 75.4629 0.822666C75.2554 0.582837 74.9662 0.5 74.688 0.5H1.57243C1.29605 0.5 1.01124 0.580781 0.79579 0.79656C0.580449 1.01223 0.5 1.29707 0.5 1.57331V39.5684C0.5 39.8446 0.580448 40.1295 0.795789 40.3451C1.01124 40.5609 1.29605 40.6417 1.57243 40.6417H6.04784C6.32423 40.6417 6.60903 40.5609 6.82448 40.3451C7.03982 40.1295 7.12027 39.8446 7.12027 39.5684V26.3822C7.12027 26.3489 7.12386 26.3274 7.12689 26.3153C7.13886 26.3124 7.16001 26.3089 7.19271 26.3089H68.8075C69.0495 26.3089 69.3324 26.2586 69.5581 26.0627C69.7975 25.8549 69.88 25.5657 69.88 25.2877V20.7533C69.88 20.477 69.7995 20.1922 69.5842 19.9765C69.3687 19.7607 69.0839 19.6799 68.8075 19.6799H7.19271C7.16001 19.6799 7.13886 19.6764 7.12689 19.6735C7.12387 19.6614 7.12027 19.6399 7.12027 19.6066V7.20222Z" stroke="white"/>
</svg>
