<svg width="1169" height="42" viewBox="0 0 1169 42" fill="none" xmlns="http://www.w3.org/2000/svg">
<path d="M98.564 2.51713L98.5655 2.5204C98.7488 2.94162 99.0286 3.58087 99.3831 4.39056C100.736 7.48234 103.178 13.0593 105.488 18.4715L105.488 18.4711L98.564 2.51713ZM98.564 2.51713L97.9473 1.12748C97.8052 0.742275 97.4321 0.552124 97.0662 0.552124H93.5796C93.1771 0.552124 92.8757 0.76412 92.695 1.03567L92.6714 1.07106M98.564 2.51713L92.6714 1.07106M92.6714 1.07106L92.6542 1.10991M92.6714 1.07106L92.6542 1.10991M92.6542 1.10991L92.0297 2.51712L92.0283 2.52041M92.6542 1.10991L92.0283 2.52041M92.0283 2.52041C91.1432 4.55391 88.0724 11.6433 85.1577 18.4722C85.0014 18.8373 84.8456 19.2016 84.6903 19.5646C82.8267 23.9208 81.0485 28.0775 79.8024 30.8135L79.8008 30.8171M92.0283 2.52041L79.8008 30.8171M79.8008 30.8171C78.6598 33.3747 78.5085 36.4969 78.5085 39.6205C78.5085 39.8537 78.567 40.1205 78.7718 40.3256C78.9757 40.5299 79.2411 40.589 79.4737 40.5896C79.4748 40.5896 79.4758 40.5896 79.4768 40.5896L84.1548 40.6417L84.3248 40.6436M79.8008 30.8171L84.3248 40.6436M84.3248 40.6436L84.4607 40.5415M84.3248 40.6436L84.4607 40.5415M84.4607 40.5415L84.6689 40.3851L84.6973 40.3638M84.4607 40.5415L84.6973 40.3638M84.6973 40.3638L84.7224 40.3386M84.6973 40.3638L84.7224 40.3386M84.7224 40.3386C84.741 40.3199 84.7588 40.3051 84.7802 40.2886C84.7881 40.2825 84.8475 40.2388 84.8829 40.2084C84.9315 40.1666 85.0037 40.0963 85.0574 39.9888C85.1123 39.8788 85.1288 39.7689 85.1288 39.6726C85.1288 38.878 85.1673 37.71 85.2887 36.5452C85.4111 35.3707 85.6131 34.2499 85.92 33.5135C86.0261 33.2791 86.116 33.0584 86.2049 32.84C86.3581 32.4639 86.5085 32.0948 86.7344 31.6745L86.761 31.625M84.7224 40.3386L86.761 31.625M86.761 31.625C86.7615 31.625 86.7619 31.625 86.7624 31.625H103.833L103.859 31.6745C104.085 32.0948 104.236 32.4639 104.389 32.8401C104.479 33.0606 104.569 33.2836 104.677 33.5207L104.679 33.526C105.404 35.0746 105.465 37.1447 105.465 39.6726C105.465 39.9061 105.524 40.1835 105.749 40.3916C105.966 40.5918 106.244 40.6417 106.485 40.6417H111.117C111.358 40.6417 111.637 40.5918 111.853 40.3916C112.078 40.1834 112.137 39.9061 112.137 39.6726C112.137 36.5402 111.984 33.5831 110.796 30.8234L86.761 31.625ZM110.796 30.823L105.488 18.4722L110.796 30.823ZM95.3031 11.6672L95.3064 11.6748C95.5211 12.1702 95.744 12.6838 95.9734 13.2123C97.0242 15.6333 98.2113 18.3684 99.3635 21.1037L99.3635 21.1037L99.3665 21.1107C99.6232 21.6949 99.8588 22.2794 100.096 22.8672C100.12 22.9263 100.143 22.9855 100.167 23.0446C100.423 23.6791 100.683 24.3168 100.969 24.944H89.6248C90.1958 23.6944 90.7152 22.4457 91.283 21.0499C91.2835 21.0486 91.2841 21.0472 91.2846 21.0459L95.2803 11.6912C95.2889 11.6768 95.2969 11.6709 95.3013 11.6682C95.3019 11.6678 95.3025 11.6675 95.3031 11.6672ZM169.637 41.0772L169.639 41.0792C170.012 41.546 170.735 41.6468 171.217 41.2693L174.696 38.7209L174.709 38.7115L174.721 38.7014C174.919 38.5363 175.118 38.3046 175.163 37.9907C175.209 37.6678 175.075 37.3903 174.898 37.1746L173.83 35.7478C173.813 35.7179 173.805 35.6967 173.8 35.6829C173.795 35.6677 173.795 35.661 173.795 35.6594C173.795 35.6578 173.795 35.6512 173.8 35.6359C173.805 35.6211 173.815 35.5978 173.834 35.5642C175.081 33.7659 175.786 31.6397 175.786 29.3008V11.9451C175.786 5.65767 170.496 0.60424 164.045 0.60424H126.941C120.49 0.60424 115.2 5.65767 115.2 11.9451V29.3008C115.2 35.5883 120.49 40.6417 126.941 40.6417H164.045C165.707 40.6417 167.182 40.374 168.507 39.7686C168.549 39.7531 168.567 39.7581 168.569 39.7587C168.571 39.7592 168.6 39.7662 168.65 39.8276C168.65 39.8278 168.65 39.8281 168.65 39.8283L169.637 41.0772ZM163.455 22.0674L163.455 22.0673L163.447 22.0569C163.251 21.812 162.974 21.6826 162.713 21.6407C162.454 21.5992 162.161 21.6355 161.914 21.784L161.889 21.7995L161.865 21.8178L158.397 24.5131C158.128 24.6894 157.994 24.9754 157.961 25.2388C157.927 25.5118 157.992 25.8173 158.186 26.0634C158.187 26.0652 158.189 26.067 158.19 26.0688L164.208 34.0091C164.153 34.0115 164.099 34.0128 164.045 34.0128H126.941C124.109 34.0128 121.821 31.8553 121.821 29.3008V11.9451C121.821 9.38444 124.116 7.18102 126.941 7.18102H164.045C166.919 7.18102 169.165 9.38153 169.165 11.9451V29.3008C169.165 29.334 169.156 29.352 169.147 29.3639C169.136 29.3784 169.118 29.3928 169.093 29.4013C169.069 29.4096 169.046 29.4096 169.029 29.4048C169.015 29.401 168.993 29.3917 168.969 29.3606C168.968 29.3601 168.968 29.3595 168.968 29.359L163.455 22.0674ZM7.12027 7.20222C7.12027 7.19599 7.1204 7.19033 7.12061 7.18522C7.13828 7.18285 7.16198 7.18102 7.19271 7.18102H74.688C74.9662 7.18102 75.2554 7.09818 75.4629 6.85835C75.6583 6.63255 75.7084 6.34968 75.7084 6.10771V1.57331C75.7084 1.33134 75.6583 1.04847 75.4629 0.822666C75.2554 0.582837 74.9662 0.5 74.688 0.5H1.57243C1.29605 0.5 1.01124 0.580781 0.79579 0.79656C0.580449 1.01223 0.5 1.29707 0.5 1.57331V39.5684C0.5 39.8446 0.580448 40.1295 0.795789 40.3451C1.01124 40.5609 1.29605 40.6417 1.57243 40.6417H6.04784C6.32423 40.6417 6.60903 40.5609 6.82448 40.3451C7.03982 40.1295 7.12027 39.8446 7.12027 39.5684V26.3822C7.12027 26.3489 7.12386 26.3274 7.12689 26.3153C7.13886 26.3124 7.16001 26.3089 7.19271 26.3089H68.8075C69.0495 26.3089 69.3324 26.2586 69.5581 26.0627C69.7975 25.8549 69.88 25.5657 69.88 25.2877V20.7533C69.88 20.477 69.7995 20.1922 69.5842 19.9765C69.3687 19.7607 69.0839 19.6799 68.8075 19.6799H7.19271C7.16001 19.6799 7.13886 19.6764 7.12689 19.6735C7.12387 19.6614 7.12027 19.6399 7.12027 19.6066V7.20222Z" stroke="white"/>
<path d="M205.62 7.20222C205.62 6.83738 205.828 6.68102 206.193 6.68102H273.688C274.052 6.68102 274.208 6.47254 274.208 6.10771V1.57331C274.208 1.20848 274.052 1 273.688 1H200.572C200.208 1 200 1.20848 200 1.57331V39.5684C200 39.9332 200.208 40.1417 200.572 40.1417H205.048C205.412 40.1417 205.62 39.9332 205.62 39.5684V26.3822C205.62 26.0173 205.828 25.8089 206.193 25.8089H267.808C268.172 25.8089 268.38 25.6525 268.38 25.2877V20.7533C268.38 20.3884 268.172 20.1799 267.808 20.1799H206.193C205.828 20.1799 205.62 19.9715 205.62 19.6066V7.20222Z" fill="white"/>
<path d="M304.028 18.6685C301.114 11.8408 297.992 4.7526 297.107 2.71994L296.483 1.31272C296.43 1.15636 296.274 1.05212 296.066 1.05212H292.58C292.371 1.05212 292.215 1.15636 292.111 1.31272L291.487 2.71994C290.602 4.7526 287.532 11.8408 284.618 18.6685C282.588 23.4114 280.61 28.05 279.257 31.0208C278.165 33.4704 278.008 36.4933 278.008 39.6205C278.008 39.9332 278.165 40.0896 278.477 40.0896L283.16 40.1417L283.369 39.9853C283.525 39.829 283.629 39.829 283.629 39.6726C283.629 38.0569 283.785 34.9297 284.461 33.314C284.722 32.7407 284.93 32.1153 285.294 31.4377C285.346 31.2293 285.502 31.125 285.762 31.125H302.883C303.092 31.125 303.248 31.2293 303.3 31.4377C303.664 32.1153 303.872 32.7407 304.132 33.314C304.913 34.9819 304.965 37.1709 304.965 39.6726C304.965 39.9853 305.121 40.1417 305.485 40.1417H310.117C310.481 40.1417 310.637 39.9853 310.637 39.6726C310.637 36.5454 310.481 33.6789 309.336 31.0208L304.028 18.6685ZM288.625 25.444C288.26 25.444 288 25.1313 288.156 24.7665C288.729 23.5156 289.249 22.2647 289.821 20.8575L293.829 11.476C294.037 11.0591 294.609 11.0591 294.765 11.476C295.962 14.2383 297.419 17.574 298.824 20.9096C299.397 22.2126 299.865 23.5156 300.438 24.7665C300.594 25.1313 300.385 25.444 300.021 25.444H288.625Z" fill="white"/>
<path d="M374.286 11.9451C374.286 5.95135 369.238 1.10424 363.045 1.10424H325.941C319.748 1.10424 314.7 5.95135 314.7 11.9451V29.3008C314.7 35.2946 319.748 40.1417 325.941 40.1417H363.045C364.658 40.1417 366.063 39.8811 367.312 39.3078C367.573 39.2035 367.833 39.2557 368.041 39.5163L369.03 40.7671C369.238 41.0277 369.654 41.0798 369.914 40.8714L373.401 38.3175C373.713 38.0569 373.765 37.7963 373.505 37.4836L372.412 36.0243C372.256 35.7637 372.256 35.5552 372.412 35.2946C373.609 33.5746 374.286 31.542 374.286 29.3008V11.9451ZM364.138 34.4086C363.774 34.4607 363.409 34.5128 363.045 34.5128H325.941C322.871 34.5128 320.321 32.1674 320.321 29.3008V11.9451C320.321 9.07851 322.871 6.68102 325.941 6.68102H363.045C366.168 6.68102 368.665 9.07851 368.665 11.9451V29.3008C368.665 29.8742 367.937 30.1348 367.573 29.6657L362.056 22.369C361.848 22.1084 361.432 22.0562 361.172 22.2126L357.685 24.9228C357.425 25.0792 357.373 25.4961 357.581 25.7567L364.138 34.4086Z" fill="white"/>
<path d="M495.564 2.51713L495.565 2.5204C495.749 2.94162 496.029 3.58087 496.383 4.39056C497.736 7.48234 500.178 13.0593 502.488 18.4715L502.488 18.4711L495.564 2.51713ZM495.564 2.51713L494.947 1.12748C494.805 0.742275 494.432 0.552124 494.066 0.552124H490.58C490.177 0.552124 489.876 0.76412 489.695 1.03567L489.671 1.07106M495.564 2.51713L489.671 1.07106M489.671 1.07106L489.654 1.10991M489.671 1.07106L489.654 1.10991M489.654 1.10991L489.03 2.51712L489.028 2.52041M489.654 1.10991L489.028 2.52041M489.028 2.52041C488.143 4.55391 485.072 11.6433 482.158 18.4722C482.001 18.8373 481.846 19.2016 481.69 19.5646C479.827 23.9208 478.049 28.0775 476.802 30.8135L476.801 30.8171M489.028 2.52041L476.801 30.8171M476.801 30.8171C475.66 33.3747 475.508 36.4969 475.508 39.6205C475.508 39.8537 475.567 40.1205 475.772 40.3256C475.976 40.5299 476.241 40.589 476.474 40.5896C476.475 40.5896 476.476 40.5896 476.477 40.5896L481.155 40.6417L481.325 40.6436M476.801 30.8171L481.325 40.6436M481.325 40.6436L481.461 40.5415M481.325 40.6436L481.461 40.5415M481.461 40.5415L481.669 40.3851L481.697 40.3638M481.461 40.5415L481.697 40.3638M481.697 40.3638L481.722 40.3386M481.697 40.3638L481.722 40.3386M481.722 40.3386C481.741 40.3199 481.759 40.3051 481.78 40.2886C481.788 40.2825 481.847 40.2388 481.883 40.2084C481.932 40.1666 482.004 40.0963 482.057 39.9888C482.112 39.8788 482.129 39.7689 482.129 39.6726C482.129 38.878 482.167 37.71 482.289 36.5452C482.411 35.3707 482.613 34.2499 482.92 33.5135C483.026 33.2791 483.116 33.0584 483.205 32.84C483.358 32.4639 483.508 32.0948 483.734 31.6745L483.761 31.625M481.722 40.3386L483.761 31.625M483.761 31.625C483.761 31.625 483.762 31.625 483.762 31.625H500.833L500.859 31.6745C501.085 32.0948 501.236 32.4639 501.389 32.8401C501.479 33.0606 501.569 33.2836 501.677 33.5207L501.679 33.526C502.404 35.0746 502.465 37.1447 502.465 39.6726C502.465 39.9061 502.524 40.1835 502.749 40.3916C502.966 40.5918 503.244 40.6417 503.485 40.6417H508.117C508.358 40.6417 508.637 40.5918 508.853 40.3916C509.078 40.1834 509.137 39.9061 509.137 39.6726C509.137 36.5402 508.984 33.5831 507.796 30.8234L483.761 31.625ZM507.796 30.823L502.488 18.4722L507.796 30.823ZM492.303 11.6672L492.306 11.6748C492.521 12.1702 492.744 12.6838 492.973 13.2123C494.024 15.6333 495.211 18.3684 496.364 21.1037L496.363 21.1037L496.367 21.1107C496.623 21.6949 496.859 22.2794 497.096 22.8672C497.12 22.9263 497.143 22.9855 497.167 23.0446C497.423 23.6791 497.683 24.3168 497.969 24.944H486.625C487.196 23.6944 487.715 22.4457 488.283 21.0499C488.284 21.0486 488.284 21.0472 488.285 21.0459L492.28 11.6912C492.289 11.6768 492.297 11.6709 492.301 11.6682C492.302 11.6678 492.303 11.6675 492.303 11.6672ZM566.637 41.0772L566.639 41.0792C567.012 41.546 567.735 41.6468 568.217 41.2693L571.696 38.7209L571.709 38.7115L571.721 38.7014C571.919 38.5363 572.118 38.3046 572.163 37.9907C572.209 37.6678 572.075 37.3903 571.898 37.1746L570.83 35.7478C570.813 35.7179 570.805 35.6967 570.8 35.6829C570.795 35.6677 570.795 35.661 570.795 35.6594C570.795 35.6578 570.795 35.6512 570.8 35.6359C570.805 35.6211 570.815 35.5978 570.834 35.5642C572.081 33.7659 572.786 31.6397 572.786 29.3008V11.9451C572.786 5.65767 567.496 0.60424 561.045 0.60424H523.941C517.49 0.60424 512.2 5.65767 512.2 11.9451V29.3008C512.2 35.5883 517.49 40.6417 523.941 40.6417H561.045C562.707 40.6417 564.182 40.374 565.507 39.7686C565.549 39.7531 565.567 39.7581 565.569 39.7587C565.571 39.7592 565.6 39.7662 565.65 39.8276C565.65 39.8278 565.65 39.8281 565.65 39.8283L566.637 41.0772ZM560.455 22.0674L560.455 22.0673L560.447 22.0569C560.251 21.812 559.974 21.6826 559.713 21.6407C559.454 21.5992 559.161 21.6355 558.914 21.784L558.889 21.7995L558.865 21.8178L555.397 24.5131C555.128 24.6894 554.994 24.9754 554.961 25.2388C554.927 25.5118 554.992 25.8173 555.186 26.0634C555.187 26.0652 555.189 26.067 555.19 26.0688L561.208 34.0091C561.153 34.0115 561.099 34.0128 561.045 34.0128H523.941C521.109 34.0128 518.821 31.8553 518.821 29.3008V11.9451C518.821 9.38444 521.116 7.18102 523.941 7.18102H561.045C563.919 7.18102 566.165 9.38153 566.165 11.9451V29.3008C566.165 29.334 566.156 29.352 566.147 29.3639C566.136 29.3784 566.118 29.3928 566.093 29.4013C566.069 29.4096 566.046 29.4096 566.029 29.4048C566.015 29.401 565.993 29.3917 565.969 29.3606C565.968 29.3601 565.968 29.3595 565.968 29.359L560.455 22.0674ZM404.12 7.20222C404.12 7.19599 404.12 7.19033 404.121 7.18522C404.138 7.18285 404.162 7.18102 404.193 7.18102H471.688C471.966 7.18102 472.255 7.09818 472.463 6.85835C472.658 6.63255 472.708 6.34968 472.708 6.10771V1.57331C472.708 1.33134 472.658 1.04847 472.463 0.822666C472.255 0.582837 471.966 0.5 471.688 0.5H398.572C398.296 0.5 398.011 0.580781 397.796 0.79656C397.58 1.01223 397.5 1.29707 397.5 1.57331V39.5684C397.5 39.8446 397.58 40.1295 397.796 40.3451C398.011 40.5609 398.296 40.6417 398.572 40.6417H403.048C403.324 40.6417 403.609 40.5609 403.824 40.3451C404.04 40.1295 404.12 39.8446 404.12 39.5684V26.3822C404.12 26.3489 404.124 26.3274 404.127 26.3153C404.139 26.3124 404.16 26.3089 404.193 26.3089H465.808C466.05 26.3089 466.332 26.2586 466.558 26.0627C466.798 25.8549 466.88 25.5657 466.88 25.2877V20.7533C466.88 20.477 466.8 20.1922 466.584 19.9765C466.369 19.7607 466.084 19.6799 465.808 19.6799H404.193C404.16 19.6799 404.139 19.6764 404.127 19.6735C404.124 19.6614 404.12 19.6399 404.12 19.6066V7.20222Z" stroke="white"/>
<path d="M693.564 2.51713L693.565 2.5204C693.749 2.94162 694.029 3.58087 694.383 4.39056C695.736 7.48234 698.178 13.0593 700.488 18.4715L700.488 18.4711L693.564 2.51713ZM693.564 2.51713L692.947 1.12748C692.805 0.742275 692.432 0.552124 692.066 0.552124H688.58C688.177 0.552124 687.876 0.76412 687.695 1.03567L687.671 1.07106M693.564 2.51713L687.671 1.07106M687.671 1.07106L687.654 1.10991M687.671 1.07106L687.654 1.10991M687.654 1.10991L687.03 2.51712L687.028 2.52041M687.654 1.10991L687.028 2.52041M687.028 2.52041C686.143 4.55391 683.072 11.6433 680.158 18.4722C680.001 18.8373 679.846 19.2016 679.69 19.5646C677.827 23.9208 676.049 28.0775 674.802 30.8135L674.801 30.8171M687.028 2.52041L674.801 30.8171M674.801 30.8171C673.66 33.3747 673.508 36.4969 673.508 39.6205C673.508 39.8537 673.567 40.1205 673.772 40.3256C673.976 40.5299 674.241 40.589 674.474 40.5896C674.475 40.5896 674.476 40.5896 674.477 40.5896L679.155 40.6417L679.325 40.6436M674.801 30.8171L679.325 40.6436M679.325 40.6436L679.461 40.5415M679.325 40.6436L679.461 40.5415M679.461 40.5415L679.669 40.3851L679.697 40.3638M679.461 40.5415L679.697 40.3638M679.697 40.3638L679.722 40.3386M679.697 40.3638L679.722 40.3386M679.722 40.3386C679.741 40.3199 679.759 40.3051 679.78 40.2886C679.788 40.2825 679.847 40.2388 679.883 40.2084C679.932 40.1666 680.004 40.0963 680.057 39.9888C680.112 39.8788 680.129 39.7689 680.129 39.6726C680.129 38.878 680.167 37.71 680.289 36.5452C680.411 35.3707 680.613 34.2499 680.92 33.5135C681.026 33.2791 681.116 33.0584 681.205 32.84C681.358 32.4639 681.508 32.0948 681.734 31.6745L681.761 31.625M679.722 40.3386L681.761 31.625M681.761 31.625C681.761 31.625 681.762 31.625 681.762 31.625H698.833L698.859 31.6745C699.085 32.0948 699.236 32.4639 699.389 32.8401C699.479 33.0606 699.569 33.2836 699.677 33.5207L699.679 33.526C700.404 35.0746 700.465 37.1447 700.465 39.6726C700.465 39.9061 700.524 40.1835 700.749 40.3916C700.966 40.5918 701.244 40.6417 701.485 40.6417H706.117C706.358 40.6417 706.637 40.5918 706.853 40.3916C707.078 40.1834 707.137 39.9061 707.137 39.6726C707.137 36.5402 706.984 33.5831 705.796 30.8234L681.761 31.625ZM705.796 30.823L700.488 18.4722L705.796 30.823ZM690.303 11.6672L690.306 11.6748C690.521 12.1702 690.744 12.6838 690.973 13.2123C692.024 15.6333 693.211 18.3684 694.364 21.1037L694.363 21.1037L694.367 21.1107C694.623 21.6949 694.859 22.2794 695.096 22.8672C695.12 22.9263 695.143 22.9855 695.167 23.0446C695.423 23.6791 695.683 24.3168 695.969 24.944H684.625C685.196 23.6944 685.715 22.4457 686.283 21.0499C686.284 21.0486 686.284 21.0472 686.285 21.0459L690.28 11.6912C690.289 11.6768 690.297 11.6709 690.301 11.6682C690.302 11.6678 690.303 11.6675 690.303 11.6672ZM764.637 41.0772L764.639 41.0792C765.012 41.546 765.735 41.6468 766.217 41.2693L769.696 38.7209L769.709 38.7115L769.721 38.7014C769.919 38.5363 770.118 38.3046 770.163 37.9907C770.209 37.6678 770.075 37.3903 769.898 37.1746L768.83 35.7478C768.813 35.7179 768.805 35.6967 768.8 35.6829C768.795 35.6677 768.795 35.661 768.795 35.6594C768.795 35.6578 768.795 35.6512 768.8 35.6359C768.805 35.6211 768.815 35.5978 768.834 35.5642C770.081 33.7659 770.786 31.6397 770.786 29.3008V11.9451C770.786 5.65767 765.496 0.60424 759.045 0.60424H721.941C715.49 0.60424 710.2 5.65767 710.2 11.9451V29.3008C710.2 35.5883 715.49 40.6417 721.941 40.6417H759.045C760.707 40.6417 762.182 40.374 763.507 39.7686C763.549 39.7531 763.567 39.7581 763.569 39.7587C763.571 39.7592 763.6 39.7662 763.65 39.8276C763.65 39.8278 763.65 39.8281 763.65 39.8283L764.637 41.0772ZM758.455 22.0674L758.455 22.0673L758.447 22.0569C758.251 21.812 757.974 21.6826 757.713 21.6407C757.454 21.5992 757.161 21.6355 756.914 21.784L756.889 21.7995L756.865 21.8178L753.397 24.5131C753.128 24.6894 752.994 24.9754 752.961 25.2388C752.927 25.5118 752.992 25.8173 753.186 26.0634C753.187 26.0652 753.189 26.067 753.19 26.0688L759.208 34.0091C759.153 34.0115 759.099 34.0128 759.045 34.0128H721.941C719.109 34.0128 716.821 31.8553 716.821 29.3008V11.9451C716.821 9.38444 719.116 7.18102 721.941 7.18102H759.045C761.919 7.18102 764.165 9.38153 764.165 11.9451V29.3008C764.165 29.334 764.156 29.352 764.147 29.3639C764.136 29.3784 764.118 29.3928 764.093 29.4013C764.069 29.4096 764.046 29.4096 764.029 29.4048C764.015 29.401 763.993 29.3917 763.969 29.3606C763.968 29.3601 763.968 29.3595 763.968 29.359L758.455 22.0674ZM602.12 7.20222C602.12 7.19599 602.12 7.19033 602.121 7.18522C602.138 7.18285 602.162 7.18102 602.193 7.18102H669.688C669.966 7.18102 670.255 7.09818 670.463 6.85835C670.658 6.63255 670.708 6.34968 670.708 6.10771V1.57331C670.708 1.33134 670.658 1.04847 670.463 0.822666C670.255 0.582837 669.966 0.5 669.688 0.5H596.572C596.296 0.5 596.011 0.580781 595.796 0.79656C595.58 1.01223 595.5 1.29707 595.5 1.57331V39.5684C595.5 39.8446 595.58 40.1295 595.796 40.3451C596.011 40.5609 596.296 40.6417 596.572 40.6417H601.048C601.324 40.6417 601.609 40.5609 601.824 40.3451C602.04 40.1295 602.12 39.8446 602.12 39.5684V26.3822C602.12 26.3489 602.124 26.3274 602.127 26.3153C602.139 26.3124 602.16 26.3089 602.193 26.3089H663.808C664.05 26.3089 664.332 26.2586 664.558 26.0627C664.798 25.8549 664.88 25.5657 664.88 25.2877V20.7533C664.88 20.477 664.8 20.1922 664.584 19.9765C664.369 19.7607 664.084 19.6799 663.808 19.6799H602.193C602.16 19.6799 602.139 19.6764 602.127 19.6735C602.124 19.6614 602.12 19.6399 602.12 19.6066V7.20222Z" stroke="white"/>
<path d="M1090.56 2.51713L1090.57 2.5204C1090.75 2.94162 1091.03 3.58087 1091.38 4.39056C1092.74 7.48234 1095.18 13.0593 1097.49 18.4715L1097.49 18.4711L1090.56 2.51713ZM1090.56 2.51713L1089.95 1.12748C1089.81 0.742275 1089.43 0.552124 1089.07 0.552124H1085.58C1085.18 0.552124 1084.88 0.76412 1084.69 1.03567L1084.67 1.07106M1090.56 2.51713L1084.67 1.07106M1084.67 1.07106L1084.65 1.10991M1084.67 1.07106L1084.65 1.10991M1084.65 1.10991L1084.03 2.51712L1084.03 2.52041M1084.65 1.10991L1084.03 2.52041M1084.03 2.52041C1083.14 4.55391 1080.07 11.6433 1077.16 18.4722C1077 18.8373 1076.85 19.2016 1076.69 19.5646C1074.83 23.9208 1073.05 28.0775 1071.8 30.8135L1071.8 30.8171M1084.03 2.52041L1071.8 30.8171M1071.8 30.8171C1070.66 33.3747 1070.51 36.4969 1070.51 39.6205C1070.51 39.8537 1070.57 40.1205 1070.77 40.3256C1070.98 40.5299 1071.24 40.589 1071.47 40.5896C1071.47 40.5896 1071.48 40.5896 1071.48 40.5896L1076.15 40.6417L1076.32 40.6436M1071.8 30.8171L1076.32 40.6436M1076.32 40.6436L1076.46 40.5415M1076.32 40.6436L1076.46 40.5415M1076.46 40.5415L1076.67 40.3851L1076.7 40.3638M1076.46 40.5415L1076.7 40.3638M1076.7 40.3638L1076.72 40.3386M1076.7 40.3638L1076.72 40.3386M1076.72 40.3386C1076.74 40.3199 1076.76 40.3051 1076.78 40.2886C1076.79 40.2825 1076.85 40.2388 1076.88 40.2084C1076.93 40.1666 1077 40.0963 1077.06 39.9888C1077.11 39.8788 1077.13 39.7689 1077.13 39.6726C1077.13 38.878 1077.17 37.71 1077.29 36.5452C1077.41 35.3707 1077.61 34.2499 1077.92 33.5135C1078.03 33.2791 1078.12 33.0584 1078.2 32.84C1078.36 32.4639 1078.51 32.0948 1078.73 31.6745L1078.76 31.625M1076.72 40.3386L1078.76 31.625M1078.76 31.625C1078.76 31.625 1078.76 31.625 1078.76 31.625H1095.83L1095.86 31.6745C1096.09 32.0948 1096.24 32.4639 1096.39 32.8401C1096.48 33.0606 1096.57 33.2836 1096.68 33.5207L1096.68 33.526C1097.4 35.0746 1097.46 37.1447 1097.46 39.6726C1097.46 39.9061 1097.52 40.1835 1097.75 40.3916C1097.97 40.5918 1098.24 40.6417 1098.49 40.6417H1103.12C1103.36 40.6417 1103.64 40.5918 1103.85 40.3916C1104.08 40.1834 1104.14 39.9061 1104.14 39.6726C1104.14 36.5402 1103.98 33.5831 1102.8 30.8234L1078.76 31.625ZM1102.8 30.823L1097.49 18.4722L1102.8 30.823ZM1087.3 11.6672L1087.31 11.6748C1087.52 12.1702 1087.74 12.6838 1087.97 13.2123C1089.02 15.6333 1090.21 18.3684 1091.36 21.1037L1091.36 21.1037L1091.37 21.1107C1091.62 21.6949 1091.86 22.2794 1092.1 22.8672C1092.12 22.9263 1092.14 22.9855 1092.17 23.0446C1092.42 23.6791 1092.68 24.3168 1092.97 24.944H1081.62C1082.2 23.6944 1082.72 22.4457 1083.28 21.0499C1083.28 21.0486 1083.28 21.0472 1083.28 21.0459L1087.28 11.6912C1087.29 11.6768 1087.3 11.6709 1087.3 11.6682C1087.3 11.6678 1087.3 11.6675 1087.3 11.6672ZM1161.64 41.0772L1161.64 41.0792C1162.01 41.546 1162.73 41.6468 1163.22 41.2693L1166.7 38.7209L1166.71 38.7115L1166.72 38.7014C1166.92 38.5363 1167.12 38.3046 1167.16 37.9907C1167.21 37.6678 1167.07 37.3903 1166.9 37.1746L1165.83 35.7478C1165.81 35.7179 1165.8 35.6967 1165.8 35.6829C1165.8 35.6677 1165.8 35.661 1165.8 35.6594C1165.8 35.6578 1165.8 35.6512 1165.8 35.6359C1165.8 35.6211 1165.81 35.5978 1165.83 35.5642C1167.08 33.7659 1167.79 31.6397 1167.79 29.3008V11.9451C1167.79 5.65767 1162.5 0.60424 1156.05 0.60424H1118.94C1112.49 0.60424 1107.2 5.65767 1107.2 11.9451V29.3008C1107.2 35.5883 1112.49 40.6417 1118.94 40.6417H1156.05C1157.71 40.6417 1159.18 40.374 1160.51 39.7686C1160.55 39.7531 1160.57 39.7581 1160.57 39.7587C1160.57 39.7592 1160.6 39.7662 1160.65 39.8276C1160.65 39.8278 1160.65 39.8281 1160.65 39.8283L1161.64 41.0772ZM1155.46 22.0674L1155.46 22.0673L1155.45 22.0569C1155.25 21.812 1154.97 21.6826 1154.71 21.6407C1154.45 21.5992 1154.16 21.6355 1153.91 21.784L1153.89 21.7995L1153.86 21.8178L1150.4 24.5131C1150.13 24.6894 1149.99 24.9754 1149.96 25.2388C1149.93 25.5118 1149.99 25.8173 1150.19 26.0634C1150.19 26.0652 1150.19 26.067 1150.19 26.0688L1156.21 34.0091C1156.15 34.0115 1156.1 34.0128 1156.05 34.0128H1118.94C1116.11 34.0128 1113.82 31.8553 1113.82 29.3008V11.9451C1113.82 9.38444 1116.12 7.18102 1118.94 7.18102H1156.05C1158.92 7.18102 1161.17 9.38153 1161.17 11.9451V29.3008C1161.17 29.334 1161.16 29.352 1161.15 29.3639C1161.14 29.3784 1161.12 29.3928 1161.09 29.4013C1161.07 29.4096 1161.05 29.4096 1161.03 29.4048C1161.01 29.401 1160.99 29.3917 1160.97 29.3606C1160.97 29.3601 1160.97 29.3595 1160.97 29.359L1155.46 22.0674ZM999.12 7.20222C999.12 7.19599 999.12 7.19033 999.121 7.18522C999.138 7.18285 999.162 7.18102 999.193 7.18102H1066.69C1066.97 7.18102 1067.26 7.09818 1067.46 6.85835C1067.66 6.63255 1067.71 6.34968 1067.71 6.10771V1.57331C1067.71 1.33134 1067.66 1.04847 1067.46 0.822666C1067.26 0.582837 1066.97 0.5 1066.69 0.5H993.572C993.296 0.5 993.011 0.580781 992.796 0.79656C992.58 1.01223 992.5 1.29707 992.5 1.57331V39.5684C992.5 39.8446 992.58 40.1295 992.796 40.3451C993.011 40.5609 993.296 40.6417 993.572 40.6417H998.048C998.324 40.6417 998.609 40.5609 998.824 40.3451C999.04 40.1295 999.12 39.8446 999.12 39.5684V26.3822C999.12 26.3489 999.124 26.3274 999.127 26.3153C999.139 26.3124 999.16 26.3089 999.193 26.3089H1060.81C1061.05 26.3089 1061.33 26.2586 1061.56 26.0627C1061.8 25.8549 1061.88 25.5657 1061.88 25.2877V20.7533C1061.88 20.477 1061.8 20.1922 1061.58 19.9765C1061.37 19.7607 1061.08 19.6799 1060.81 19.6799H999.193C999.16 19.6799 999.139 19.6764 999.127 19.6735C999.124 19.6614 999.12 19.6399 999.12 19.6066V7.20222Z" stroke="white"/>
<path d="M891.564 2.51713L891.565 2.5204C891.749 2.94162 892.029 3.58087 892.383 4.39056C893.736 7.48234 896.178 13.0593 898.488 18.4715L898.488 18.4711L891.564 2.51713ZM891.564 2.51713L890.947 1.12748C890.805 0.742275 890.432 0.552124 890.066 0.552124H886.58C886.177 0.552124 885.876 0.76412 885.695 1.03567L885.671 1.07106M891.564 2.51713L885.671 1.07106M885.671 1.07106L885.654 1.10991M885.671 1.07106L885.654 1.10991M885.654 1.10991L885.03 2.51712L885.028 2.52041M885.654 1.10991L885.028 2.52041M885.028 2.52041C884.143 4.55391 881.072 11.6433 878.158 18.4722C878.001 18.8373 877.846 19.2016 877.69 19.5646C875.827 23.9208 874.049 28.0775 872.802 30.8135L872.801 30.8171M885.028 2.52041L872.801 30.8171M872.801 30.8171C871.66 33.3747 871.508 36.4969 871.508 39.6205C871.508 39.8537 871.567 40.1205 871.772 40.3256C871.976 40.5299 872.241 40.589 872.474 40.5896C872.475 40.5896 872.476 40.5896 872.477 40.5896L877.155 40.6417L877.325 40.6436M872.801 30.8171L877.325 40.6436M877.325 40.6436L877.461 40.5415M877.325 40.6436L877.461 40.5415M877.461 40.5415L877.669 40.3851L877.697 40.3638M877.461 40.5415L877.697 40.3638M877.697 40.3638L877.722 40.3386M877.697 40.3638L877.722 40.3386M877.722 40.3386C877.741 40.3199 877.759 40.3051 877.78 40.2886C877.788 40.2825 877.847 40.2388 877.883 40.2084C877.932 40.1666 878.004 40.0963 878.057 39.9888C878.112 39.8788 878.129 39.7689 878.129 39.6726C878.129 38.878 878.167 37.71 878.289 36.5452C878.411 35.3707 878.613 34.2499 878.92 33.5135C879.026 33.2791 879.116 33.0584 879.205 32.84C879.358 32.4639 879.508 32.0948 879.734 31.6745L879.761 31.625M877.722 40.3386L879.761 31.625M879.761 31.625C879.761 31.625 879.762 31.625 879.762 31.625H896.833L896.859 31.6745C897.085 32.0948 897.236 32.4639 897.389 32.8401C897.479 33.0606 897.569 33.2836 897.677 33.5207L897.679 33.526C898.404 35.0746 898.465 37.1447 898.465 39.6726C898.465 39.9061 898.524 40.1835 898.749 40.3916C898.966 40.5918 899.244 40.6417 899.485 40.6417H904.117C904.358 40.6417 904.637 40.5918 904.853 40.3916C905.078 40.1834 905.137 39.9061 905.137 39.6726C905.137 36.5402 904.984 33.5831 903.796 30.8234L879.761 31.625ZM903.796 30.823L898.488 18.4722L903.796 30.823ZM888.303 11.6672L888.306 11.6748C888.521 12.1702 888.744 12.6838 888.973 13.2123C890.024 15.6333 891.211 18.3684 892.364 21.1037L892.363 21.1037L892.367 21.1107C892.623 21.6949 892.859 22.2794 893.096 22.8672C893.12 22.9263 893.143 22.9855 893.167 23.0446C893.423 23.6791 893.683 24.3168 893.969 24.944H882.625C883.196 23.6944 883.715 22.4457 884.283 21.0499C884.284 21.0486 884.284 21.0472 884.285 21.0459L888.28 11.6912C888.289 11.6768 888.297 11.6709 888.301 11.6682C888.302 11.6678 888.303 11.6675 888.303 11.6672ZM962.637 41.0772L962.639 41.0792C963.012 41.546 963.735 41.6468 964.217 41.2693L967.696 38.7209L967.709 38.7115L967.721 38.7014C967.919 38.5363 968.118 38.3046 968.163 37.9907C968.209 37.6678 968.075 37.3903 967.898 37.1746L966.83 35.7478C966.813 35.7179 966.805 35.6967 966.8 35.6829C966.795 35.6677 966.795 35.661 966.795 35.6594C966.795 35.6578 966.795 35.6512 966.8 35.6359C966.805 35.6211 966.815 35.5978 966.834 35.5642C968.081 33.7659 968.786 31.6397 968.786 29.3008V11.9451C968.786 5.65767 963.496 0.60424 957.045 0.60424H919.941C913.49 0.60424 908.2 5.65767 908.2 11.9451V29.3008C908.2 35.5883 913.49 40.6417 919.941 40.6417H957.045C958.707 40.6417 960.182 40.374 961.507 39.7686C961.549 39.7531 961.567 39.7581 961.569 39.7587C961.571 39.7592 961.6 39.7662 961.65 39.8276C961.65 39.8278 961.65 39.8281 961.65 39.8283L962.637 41.0772ZM956.455 22.0674L956.455 22.0673L956.447 22.0569C956.251 21.812 955.974 21.6826 955.713 21.6407C955.454 21.5992 955.161 21.6355 954.914 21.784L954.889 21.7995L954.865 21.8178L951.397 24.5131C951.128 24.6894 950.994 24.9754 950.961 25.2388C950.927 25.5118 950.992 25.8173 951.186 26.0634C951.187 26.0652 951.189 26.067 951.19 26.0688L957.208 34.0091C957.153 34.0115 957.099 34.0128 957.045 34.0128H919.941C917.109 34.0128 914.821 31.8553 914.821 29.3008V11.9451C914.821 9.38444 917.116 7.18102 919.941 7.18102H957.045C959.919 7.18102 962.165 9.38153 962.165 11.9451V29.3008C962.165 29.334 962.156 29.352 962.147 29.3639C962.136 29.3784 962.118 29.3928 962.093 29.4013C962.069 29.4096 962.046 29.4096 962.029 29.4048C962.015 29.401 961.993 29.3917 961.969 29.3606C961.968 29.3601 961.968 29.3595 961.968 29.359L956.455 22.0674ZM800.12 7.20222C800.12 7.19599 800.12 7.19033 800.121 7.18522C800.138 7.18285 800.162 7.18102 800.193 7.18102H867.688C867.966 7.18102 868.255 7.09818 868.463 6.85835C868.658 6.63255 868.708 6.34968 868.708 6.10771V1.57331C868.708 1.33134 868.658 1.04847 868.463 0.822666C868.255 0.582837 867.966 0.5 867.688 0.5H794.572C794.296 0.5 794.011 0.580781 793.796 0.79656C793.58 1.01223 793.5 1.29707 793.5 1.57331V39.5684C793.5 39.8446 793.58 40.1295 793.796 40.3451C794.011 40.5609 794.296 40.6417 794.572 40.6417H799.048C799.324 40.6417 799.609 40.5609 799.824 40.3451C800.04 40.1295 800.12 39.8446 800.12 39.5684V26.3822C800.12 26.3489 800.124 26.3274 800.127 26.3153C800.139 26.3124 800.16 26.3089 800.193 26.3089H861.808C862.05 26.3089 862.332 26.2586 862.558 26.0627C862.798 25.8549 862.88 25.5657 862.88 25.2877V20.7533C862.88 20.477 862.8 20.1922 862.584 19.9765C862.369 19.7607 862.084 19.6799 861.808 19.6799H800.193C800.16 19.6799 800.139 19.6764 800.127 19.6735C800.124 19.6614 800.12 19.6399 800.12 19.6066V7.20222Z" stroke="white"/>
</svg>
