<svg width="454" height="77" viewBox="0 0 454 77" fill="none" xmlns="http://www.w3.org/2000/svg">
<mask id="path-1-outside-1_339:274" maskUnits="userSpaceOnUse" x="5" y="0" width="301" height="42" fill="black">
<rect fill="white" x="5" width="301" height="42"/>
<path d="M77.265 1.69241C77.265 1.31957 76.9454 1.05326 76.5726 1.05326H72.1518C71.779 1.05326 71.4594 1.31957 71.4594 1.69241V19.9614C71.4594 20.3875 71.2463 20.6005 70.8202 20.6005H12.4447C12.0186 20.6005 11.8056 20.3875 11.8056 19.9614V1.69241C11.8056 1.31957 11.5393 1.05326 11.1664 1.05326H6.69241C6.21305 1.05326 6 1.26631 6 1.69241V40.3609C6 40.7869 6.21305 41 6.69241 41H11.1664C11.5393 41 11.8056 40.7337 11.8056 40.3609V27.0453C11.8056 26.6192 12.0186 26.4061 12.4447 26.4061H70.8202C71.2463 26.4061 71.4594 26.6192 71.4594 27.0453V40.3609C71.4594 40.7869 71.6724 41 72.1518 41H76.5726C77.0519 41 77.265 40.7869 77.265 40.3609V1.69241Z"/>
<path d="M142.5 6.75233C145.695 6.75233 148.305 9.14913 148.305 12.1318V29.8682C148.305 32.8509 145.695 35.2477 142.5 35.2477H93.4983C90.3026 35.2477 87.6927 32.8509 87.6927 29.8682V12.1318C87.6927 9.14913 90.3026 6.75233 93.4983 6.75233H142.5ZM142.5 41C148.891 41 154.058 35.9933 154.058 29.8682V12.1318C154.058 5.95339 148.891 1 142.5 1H93.4983C87.1068 1 81.9404 5.95339 81.9404 12.1318V29.8682C81.9404 35.9933 87.1068 41 93.4983 41H142.5Z"/>
<path d="M160.277 40.3609C160.33 40.7869 160.596 41 161.022 41L165.496 40.7869C165.869 40.7337 166.136 40.4674 166.189 40.0945C166.242 39.2423 166.562 38.4434 166.775 38.0706C168.213 35.9401 170.61 32.3715 172.847 29.1758L174.551 26.7257C174.817 26.2996 175.457 26.2996 175.723 26.7257L177.427 29.1758C179.664 32.3715 181.955 35.9933 183.499 38.0706C183.765 38.4434 183.872 39.3489 183.872 40.1478C183.872 40.5206 184.138 40.7869 184.618 40.8402C186.695 41 187.813 41 188.453 41H189.251C189.305 41 189.411 41 189.465 40.9467C189.571 40.8935 189.624 40.787 189.678 40.5206L194.152 1.8522C194.205 1.4261 193.832 1.05326 193.406 1.05326H189.145C188.719 1.05326 188.453 1.26631 188.399 1.69241L185.31 28.217C185.15 28.8562 184.351 29.1225 183.979 28.5366L182.221 25.9268C180.144 22.8908 178.279 20.2277 177.64 19.3222L177.001 18.4168C176.895 18.257 176.682 18.1505 176.415 18.1505H173.859C173.646 18.1505 173.433 18.257 173.273 18.4168L172.634 19.3222C171.995 20.2277 170.077 22.8908 168.053 25.9268C167.361 26.9387 166.722 27.9507 166.029 28.9627C165.656 29.5486 164.857 29.2823 164.698 28.5899L161.608 1.69241C161.555 1.26631 161.289 1.05326 160.863 1.05326H156.602C156.176 1.05326 155.803 1.4261 155.856 1.8522L160.277 40.3609Z"/>
<path d="M226.775 1.79893C226.775 1.31957 226.562 1.10653 226.083 1.10653H210.743C210.264 1.10653 210.051 1.31957 210.051 1.79893V6.16644C210.051 6.64581 210.264 6.85886 210.743 6.85886H214.844C215.324 6.85886 215.537 7.0719 215.537 7.55127V40.3076C215.537 40.7869 215.75 41 216.229 41H220.597C221.076 41 221.289 40.7869 221.289 40.3076V7.55127C221.289 7.0719 221.502 6.85886 221.982 6.85886H226.083C226.562 6.85886 226.775 6.64581 226.775 6.16644V1.79893Z"/>
<path d="M293.184 6.75233C296.38 6.75233 298.99 9.14913 298.99 12.1318V29.8682C298.99 32.8509 296.38 35.2477 293.184 35.2477H244.183C240.987 35.2477 238.377 32.8509 238.377 29.8682V12.1318C238.377 9.14913 240.987 6.75233 244.183 6.75233H293.184ZM293.184 41C299.576 41 304.742 35.9933 304.742 29.8682V12.1318C304.742 5.95339 299.576 1 293.184 1H244.183C237.791 1 232.625 5.95339 232.625 12.1318V29.8682C232.625 35.9933 237.791 41 244.183 41H293.184Z"/>
</mask>
<path d="M77.265 1.69241C77.265 1.31957 76.9454 1.05326 76.5726 1.05326H72.1518C71.779 1.05326 71.4594 1.31957 71.4594 1.69241V19.9614C71.4594 20.3875 71.2463 20.6005 70.8202 20.6005H12.4447C12.0186 20.6005 11.8056 20.3875 11.8056 19.9614V1.69241C11.8056 1.31957 11.5393 1.05326 11.1664 1.05326H6.69241C6.21305 1.05326 6 1.26631 6 1.69241V40.3609C6 40.7869 6.21305 41 6.69241 41H11.1664C11.5393 41 11.8056 40.7337 11.8056 40.3609V27.0453C11.8056 26.6192 12.0186 26.4061 12.4447 26.4061H70.8202C71.2463 26.4061 71.4594 26.6192 71.4594 27.0453V40.3609C71.4594 40.7869 71.6724 41 72.1518 41H76.5726C77.0519 41 77.265 40.7869 77.265 40.3609V1.69241Z" stroke="white" stroke-width="2" mask="url(#path-1-outside-1_339:274)"/>
<path d="M142.5 6.75233C145.695 6.75233 148.305 9.14913 148.305 12.1318V29.8682C148.305 32.8509 145.695 35.2477 142.5 35.2477H93.4983C90.3026 35.2477 87.6927 32.8509 87.6927 29.8682V12.1318C87.6927 9.14913 90.3026 6.75233 93.4983 6.75233H142.5ZM142.5 41C148.891 41 154.058 35.9933 154.058 29.8682V12.1318C154.058 5.95339 148.891 1 142.5 1H93.4983C87.1068 1 81.9404 5.95339 81.9404 12.1318V29.8682C81.9404 35.9933 87.1068 41 93.4983 41H142.5Z" stroke="white" stroke-width="2" mask="url(#path-1-outside-1_339:274)"/>
<path d="M160.277 40.3609C160.33 40.7869 160.596 41 161.022 41L165.496 40.7869C165.869 40.7337 166.136 40.4674 166.189 40.0945C166.242 39.2423 166.562 38.4434 166.775 38.0706C168.213 35.9401 170.61 32.3715 172.847 29.1758L174.551 26.7257C174.817 26.2996 175.457 26.2996 175.723 26.7257L177.427 29.1758C179.664 32.3715 181.955 35.9933 183.499 38.0706C183.765 38.4434 183.872 39.3489 183.872 40.1478C183.872 40.5206 184.138 40.7869 184.618 40.8402C186.695 41 187.813 41 188.453 41H189.251C189.305 41 189.411 41 189.465 40.9467C189.571 40.8935 189.624 40.787 189.678 40.5206L194.152 1.8522C194.205 1.4261 193.832 1.05326 193.406 1.05326H189.145C188.719 1.05326 188.453 1.26631 188.399 1.69241L185.31 28.217C185.15 28.8562 184.351 29.1225 183.979 28.5366L182.221 25.9268C180.144 22.8908 178.279 20.2277 177.64 19.3222L177.001 18.4168C176.895 18.257 176.682 18.1505 176.415 18.1505H173.859C173.646 18.1505 173.433 18.257 173.273 18.4168L172.634 19.3222C171.995 20.2277 170.077 22.8908 168.053 25.9268C167.361 26.9387 166.722 27.9507 166.029 28.9627C165.656 29.5486 164.857 29.2823 164.698 28.5899L161.608 1.69241C161.555 1.26631 161.289 1.05326 160.863 1.05326H156.602C156.176 1.05326 155.803 1.4261 155.856 1.8522L160.277 40.3609Z" stroke="white" stroke-width="2" mask="url(#path-1-outside-1_339:274)"/>
<path d="M226.775 1.79893C226.775 1.31957 226.562 1.10653 226.083 1.10653H210.743C210.264 1.10653 210.051 1.31957 210.051 1.79893V6.16644C210.051 6.64581 210.264 6.85886 210.743 6.85886H214.844C215.324 6.85886 215.537 7.0719 215.537 7.55127V40.3076C215.537 40.7869 215.75 41 216.229 41H220.597C221.076 41 221.289 40.7869 221.289 40.3076V7.55127C221.289 7.0719 221.502 6.85886 221.982 6.85886H226.083C226.562 6.85886 226.775 6.64581 226.775 6.16644V1.79893Z" stroke="white" stroke-width="2" mask="url(#path-1-outside-1_339:274)"/>
<path d="M293.184 6.75233C296.38 6.75233 298.99 9.14913 298.99 12.1318V29.8682C298.99 32.8509 296.38 35.2477 293.184 35.2477H244.183C240.987 35.2477 238.377 32.8509 238.377 29.8682V12.1318C238.377 9.14913 240.987 6.75233 244.183 6.75233H293.184ZM293.184 41C299.576 41 304.742 35.9933 304.742 29.8682V12.1318C304.742 5.95339 299.576 1 293.184 1H244.183C237.791 1 232.625 5.95339 232.625 12.1318V29.8682C232.625 35.9933 237.791 41 244.183 41H293.184Z" stroke="white" stroke-width="2" mask="url(#path-1-outside-1_339:274)"/>
<path d="M21.12 64.1C21.12 60.98 19.17 60.2 11.37 60.2C3.81 60.2 1.92 60.8 1.92 63.2C1.92 65.72 3.87 66.35 11.67 66.35C18.48 66.35 19.62 66.635 19.62 68.3C19.62 69.59 18.435 69.8 11.37 69.8C4.56 69.8 3.42 69.455 3.42 67.4H1.62C1.62 70.52 3.57 71.3 11.37 71.3C19.41 71.3 21.42 70.7 21.42 68.3C21.42 65.54 19.47 64.85 11.67 64.85C4.86 64.85 3.72 64.61 3.72 63.2C3.72 61.91 4.815 61.7 11.37 61.7C18.18 61.7 19.32 62.045 19.32 64.1H21.12ZM26.0391 60.5V71H27.8391V67.25H35.9391C42.6591 67.25 44.3391 66.575 44.3391 63.875C44.3391 61.175 42.6591 60.5 35.9391 60.5H26.0391ZM27.8391 65.75V62H35.9391C41.5941 62 42.5391 62.27 42.5391 63.875C42.5391 65.48 41.5941 65.75 35.9391 65.75H27.8391ZM65.3344 68.39C64.9294 67.445 64.3594 66.875 63.1744 66.56C65.6344 66.215 66.3844 65.435 66.3844 63.875C66.3844 61.175 64.7044 60.5 57.9844 60.5H48.6844V71H50.4844V67.25H58.5844C62.3344 67.25 63.0544 67.49 63.6844 68.975C64.4044 70.685 65.0644 71.12 66.9844 71.12V69.62C66.0244 69.62 65.7844 69.44 65.3344 68.39ZM50.4844 65.75V62H57.9844C63.6394 62 64.5844 62.27 64.5844 63.875C64.5844 65.48 63.6394 65.75 57.9844 65.75H50.4844ZM87.0844 60.5H70.8844V71H87.0844V69.5H72.6844V66.2H84.7744V64.7H72.6844V62H87.0844V60.5ZM101.467 60.5H99.517L89.992 71H92.197L94.792 68.135V68.15H106.192V68.135L108.787 71H110.992L101.467 60.5ZM100.492 61.835L104.842 66.65H96.142L100.492 61.835ZM121.847 71C130.487 71 132.647 69.95 132.647 65.75C132.647 61.55 130.487 60.5 121.847 60.5H114.347V71H121.847ZM116.147 62H121.847C129.557 62 130.847 62.54 130.847 65.75C130.847 68.96 129.557 69.5 121.847 69.5H116.147V62ZM154.845 66.83H164.655C164.325 69.335 162.795 69.8 157.545 69.8C150.6 69.8 149.445 69.215 149.445 65.75C149.445 62.285 150.6 61.7 157.545 61.7C163.56 61.7 164.385 61.97 164.76 64.085H166.56C166.2 60.98 164.4 60.2 157.545 60.2C149.625 60.2 147.645 61.31 147.645 65.75C147.645 70.19 149.625 71.3 157.545 71.3C164.73 71.3 166.53 70.1 166.53 65.33H154.845V66.83ZM180.354 71.3C188.274 71.3 190.254 70.19 190.254 65.75C190.254 61.31 188.274 60.2 180.354 60.2C172.434 60.2 170.454 61.31 170.454 65.75C170.454 70.19 172.434 71.3 180.354 71.3ZM180.354 69.8C173.409 69.8 172.254 69.215 172.254 65.75C172.254 62.285 173.409 61.7 180.354 61.7C187.299 61.7 188.454 62.285 188.454 65.75C188.454 69.215 187.299 69.8 180.354 69.8ZM204.054 71.3C211.974 71.3 213.954 70.19 213.954 65.75C213.954 61.31 211.974 60.2 204.054 60.2C196.134 60.2 194.154 61.31 194.154 65.75C194.154 70.19 196.134 71.3 204.054 71.3ZM204.054 69.8C197.109 69.8 195.954 69.215 195.954 65.75C195.954 62.285 197.109 61.7 204.054 61.7C210.999 61.7 212.154 62.285 212.154 65.75C212.154 69.215 210.999 69.8 204.054 69.8ZM225.804 71C234.444 71 236.604 69.95 236.604 65.75C236.604 61.55 234.444 60.5 225.804 60.5H218.304V71H225.804ZM220.104 62H225.804C233.514 62 234.804 62.54 234.804 65.75C234.804 68.96 233.514 69.5 225.804 69.5H220.104V62ZM267.052 64.7H253.852V60.5H252.052V71H253.852V66.2H267.052V71H268.852V60.5H267.052V64.7ZM286.974 60.5L280.959 64.985L274.944 60.5H272.214L280.059 66.335V71H281.859V66.335L289.704 60.5H286.974ZM293.065 60.5V71H294.865V67.25H302.965C309.685 67.25 311.365 66.575 311.365 63.875C311.365 61.175 309.685 60.5 302.965 60.5H293.065ZM294.865 65.75V62H302.965C308.62 62 309.565 62.27 309.565 63.875C309.565 65.48 308.62 65.75 302.965 65.75H294.865ZM331.91 60.5H315.71V71H331.91V69.5H317.51V66.2H329.6V64.7H317.51V62H331.91V60.5ZM352.908 68.39C352.503 67.445 351.933 66.875 350.748 66.56C353.208 66.215 353.958 65.435 353.958 63.875C353.958 61.175 352.278 60.5 345.558 60.5H336.258V71H338.058V67.25H346.158C349.908 67.25 350.628 67.49 351.258 68.975C351.978 70.685 352.638 71.12 354.558 71.12V69.62C353.598 69.62 353.358 69.44 352.908 68.39ZM338.058 65.75V62H345.558C351.213 62 352.158 62.27 352.158 63.875C352.158 65.48 351.213 65.75 345.558 65.75H338.058ZM367.518 69.665L359.223 60.5H357.018L366.543 71H368.493L378.018 60.5H375.813L367.518 69.665ZM381.913 71H383.713V60.5H381.913V71ZM404.218 65.15C405.148 64.76 405.463 64.145 405.463 63.2C405.463 61.04 403.993 60.5 398.128 60.5H389.053V71H398.128C405.508 71 407.353 70.37 407.353 67.85C407.353 66.335 406.618 65.54 404.218 65.15ZM398.128 62C402.868 62 403.663 62.165 403.663 63.2C403.663 64.355 402.868 64.55 398.128 64.55H390.853V62H398.128ZM390.853 69.5V66.05H398.128C404.488 66.05 405.553 66.305 405.553 67.85C405.553 69.26 404.488 69.5 398.128 69.5H390.853ZM427.898 60.5H411.698V71H427.898V69.5H413.498V66.2H425.588V64.7H413.498V62H427.898V60.5ZM451.566 64.1C451.566 60.98 449.616 60.2 441.816 60.2C434.256 60.2 432.366 60.8 432.366 63.2C432.366 65.72 434.316 66.35 442.116 66.35C448.926 66.35 450.066 66.635 450.066 68.3C450.066 69.59 448.881 69.8 441.816 69.8C435.006 69.8 433.866 69.455 433.866 67.4H432.066C432.066 70.52 434.016 71.3 441.816 71.3C449.856 71.3 451.866 70.7 451.866 68.3C451.866 65.54 449.916 64.85 442.116 64.85C435.306 64.85 434.166 64.61 434.166 63.2C434.166 61.91 435.261 61.7 441.816 61.7C448.626 61.7 449.766 62.045 449.766 64.1H451.566Z" fill="white"/>
</svg>
