<svg width="356" height="76" viewBox="0 0 356 76" fill="none" xmlns="http://www.w3.org/2000/svg">
<mask id="path-1-outside-1_331:255" maskUnits="userSpaceOnUse" x="-1" y="0" width="357" height="43" fill="black">
<rect fill="white" x="-1" width="357" height="43"/>
<path d="M5.42586 40.3609C5.47912 40.7869 5.74543 41 6.17153 41L10.6456 40.7869C11.0184 40.7337 11.2847 40.4674 11.338 40.0945C11.3912 39.2423 11.7108 38.4434 11.9239 38.0706C13.3619 35.9401 15.7587 32.3715 17.9958 29.1758L19.7002 26.7257C19.9665 26.2996 20.6056 26.2996 20.8719 26.7257L22.5763 29.1758C24.8133 32.3715 27.1036 35.9933 28.6482 38.0706C28.9145 38.4434 29.0211 39.3489 29.0211 40.1478C29.0211 40.5206 29.2874 40.7869 29.7667 40.8402C31.844 41 32.9625 41 33.6016 41H34.4006C34.4538 41 34.5603 41 34.6136 40.9467C34.7201 40.8935 34.7734 40.7869 34.8267 40.5206L39.3007 1.8522C39.354 1.4261 38.9811 1.05326 38.555 1.05326H34.294C33.8679 1.05326 33.6016 1.26631 33.5484 1.69241L30.4591 28.217C30.2994 28.8562 29.5004 29.1225 29.1276 28.5366L27.3699 25.9268C25.2927 22.8908 23.4285 20.2277 22.7894 19.3222L22.1502 18.4168C22.0437 18.257 21.8306 18.1505 21.5643 18.1505H19.0078C18.7947 18.1505 18.5816 18.257 18.4219 18.4168L17.7827 19.3222C17.1436 20.2277 15.2261 22.8908 13.2022 25.9268C12.5098 26.9388 11.8706 27.9507 11.1782 28.9627C10.8054 29.5486 10.0064 29.2823 9.84663 28.5899L6.75742 1.69241C6.70416 1.26631 6.43785 1.05326 6.01175 1.05326H1.75076C1.32466 1.05326 0.951826 1.4261 1.00509 1.8522L5.42586 40.3609Z"/>
<path d="M113.357 1.69241C113.357 1.31957 113.038 1.05326 112.665 1.05326H108.244C107.871 1.05326 107.552 1.31957 107.552 1.69241V19.9614C107.552 20.3875 107.339 20.6005 106.913 20.6005H48.5371C48.111 20.6005 47.898 20.3875 47.898 19.9614V1.69241C47.898 1.31957 47.6317 1.05326 47.2588 1.05326H42.7848C42.3054 1.05326 42.0924 1.26631 42.0924 1.69241V40.3609C42.0924 40.7869 42.3054 41 42.7848 41H47.2588C47.6317 41 47.898 40.7337 47.898 40.3609V27.0453C47.898 26.6192 48.111 26.4061 48.5371 26.4061H106.913C107.339 26.4061 107.552 26.6192 107.552 27.0453V40.3609C107.552 40.7869 107.765 41 108.244 41H112.665C113.144 41 113.357 40.7869 113.357 40.3609V1.69241Z"/>
<path d="M145.132 19.0559C142.149 12.0786 138.954 4.83489 138.048 2.75766L137.409 1.31957C137.356 1.15979 137.196 1.05326 136.983 1.05326H133.414C133.201 1.05326 133.042 1.15979 132.935 1.31957L132.296 2.75766C131.39 4.83489 128.248 12.0786 125.265 19.0559C123.188 23.9028 121.164 28.6431 119.779 31.6791C118.661 34.1824 118.501 37.2716 118.501 40.4674C118.501 40.787 118.661 40.9467 118.98 40.9467L123.774 41L123.987 40.8402C124.147 40.6804 124.253 40.6804 124.253 40.5206C124.253 38.8695 124.413 35.6738 125.105 34.0226C125.372 33.4367 125.585 32.7976 125.958 32.1052C126.011 31.8921 126.171 31.7856 126.437 31.7856H143.96C144.173 31.7856 144.333 31.8921 144.386 32.1052C144.759 32.7976 144.972 33.4367 145.239 34.0226C146.038 35.727 146.091 37.964 146.091 40.5206C146.091 40.8402 146.251 41 146.623 41H151.364C151.737 41 151.896 40.8402 151.896 40.5206C151.896 37.3249 151.737 34.3955 150.565 31.6791L145.132 19.0559ZM129.366 25.98C128.994 25.98 128.727 25.6605 128.887 25.2876C129.473 24.0093 130.006 22.731 130.591 21.2929L134.693 11.7057C134.906 11.2796 135.492 11.2796 135.651 11.7057C136.876 14.5286 138.368 17.9374 139.806 21.3462C140.392 22.6778 140.871 24.0093 141.457 25.2876C141.617 25.6605 141.404 25.98 141.031 25.98H129.366Z"/>
<path d="M165.549 1.79893C165.549 1.31957 165.336 1.10653 164.857 1.10653H149.517C149.038 1.10653 148.825 1.31957 148.825 1.79893V6.16644C148.825 6.64581 149.038 6.85886 149.517 6.85886H153.619C154.098 6.85886 154.311 7.07191 154.311 7.55127V40.3076C154.311 40.7869 154.524 41 155.004 41H159.371C159.85 41 160.063 40.7869 160.063 40.3076V7.55127C160.063 7.07191 160.276 6.85886 160.756 6.85886H164.857C165.336 6.85886 165.549 6.64581 165.549 6.16644V1.79893Z"/>
<path d="M235.379 7.498C235.379 7.12517 235.646 6.85886 236.018 6.85886H264.674C265.046 6.85886 265.259 6.64581 265.259 6.27297V1.69241C265.259 1.31957 265.046 1.10653 264.674 1.10653H200.333C199.96 1.10653 199.747 1.31957 199.747 1.69241V6.27297C199.747 6.64581 199.96 6.85886 200.333 6.85886H229.041C229.414 6.85886 229.627 7.07191 229.627 7.498V34.6085C229.627 34.9814 229.414 35.2477 229.041 35.2477H200.333C199.96 35.2477 199.747 35.4607 199.747 35.8336V40.4141C199.747 40.787 199.96 41 200.333 41H264.674C265.046 41 265.259 40.787 265.259 40.4141V35.8336C265.259 35.4607 265.046 35.2477 264.674 35.2477H236.018C235.646 35.2477 235.379 34.9814 235.379 34.6085V7.498Z"/>
<path d="M342.536 41C348.927 41 354.094 35.9933 354.094 29.8682C354.094 28.004 353.348 23.4767 350.472 22.0386L350.259 21.9321L278.035 15.0613C277.769 15.008 277.556 14.8482 277.449 14.6352C277.077 13.9427 276.81 12.8242 276.81 12.1318C276.81 9.2024 279.42 6.80559 282.616 6.80559H342.536C345.732 6.80559 348.342 9.2024 348.342 12.1318V14.1025C348.342 14.5819 348.608 14.8482 349.087 14.8482H353.401C353.881 14.8482 354.094 14.5819 354.094 14.1025V12.1318C354.094 6.00666 348.927 1 342.536 1H282.616C276.224 1 271.058 6.00666 271.058 12.1318C271.058 13.9427 272.07 18.257 274.733 20.0146L274.893 20.1212L347.17 27.0453C347.436 27.0453 347.596 27.1518 347.756 27.4181C348.022 28.1105 348.342 29.229 348.342 29.8682C348.342 32.8509 345.732 35.2477 342.536 35.2477H282.616C279.42 35.2477 276.81 32.8509 276.81 29.8682V27.7909C276.81 27.3116 276.597 27.0985 276.118 27.0985H271.75C271.271 27.0985 271.058 27.3116 271.058 27.7909V29.8682C271.058 35.9933 276.224 41 282.616 41H342.536Z"/>
</mask>
<path d="M5.42586 40.3609C5.47912 40.7869 5.74543 41 6.17153 41L10.6456 40.7869C11.0184 40.7337 11.2847 40.4674 11.338 40.0945C11.3912 39.2423 11.7108 38.4434 11.9239 38.0706C13.3619 35.9401 15.7587 32.3715 17.9958 29.1758L19.7002 26.7257C19.9665 26.2996 20.6056 26.2996 20.8719 26.7257L22.5763 29.1758C24.8133 32.3715 27.1036 35.9933 28.6482 38.0706C28.9145 38.4434 29.0211 39.3489 29.0211 40.1478C29.0211 40.5206 29.2874 40.7869 29.7667 40.8402C31.844 41 32.9625 41 33.6016 41H34.4006C34.4538 41 34.5603 41 34.6136 40.9467C34.7201 40.8935 34.7734 40.7869 34.8267 40.5206L39.3007 1.8522C39.354 1.4261 38.9811 1.05326 38.555 1.05326H34.294C33.8679 1.05326 33.6016 1.26631 33.5484 1.69241L30.4591 28.217C30.2994 28.8562 29.5004 29.1225 29.1276 28.5366L27.3699 25.9268C25.2927 22.8908 23.4285 20.2277 22.7894 19.3222L22.1502 18.4168C22.0437 18.257 21.8306 18.1505 21.5643 18.1505H19.0078C18.7947 18.1505 18.5816 18.257 18.4219 18.4168L17.7827 19.3222C17.1436 20.2277 15.2261 22.8908 13.2022 25.9268C12.5098 26.9388 11.8706 27.9507 11.1782 28.9627C10.8054 29.5486 10.0064 29.2823 9.84663 28.5899L6.75742 1.69241C6.70416 1.26631 6.43785 1.05326 6.01175 1.05326H1.75076C1.32466 1.05326 0.951826 1.4261 1.00509 1.8522L5.42586 40.3609Z" stroke="white" stroke-width="2" mask="url(#path-1-outside-1_331:255)"/>
<path d="M113.357 1.69241C113.357 1.31957 113.038 1.05326 112.665 1.05326H108.244C107.871 1.05326 107.552 1.31957 107.552 1.69241V19.9614C107.552 20.3875 107.339 20.6005 106.913 20.6005H48.5371C48.111 20.6005 47.898 20.3875 47.898 19.9614V1.69241C47.898 1.31957 47.6317 1.05326 47.2588 1.05326H42.7848C42.3054 1.05326 42.0924 1.26631 42.0924 1.69241V40.3609C42.0924 40.7869 42.3054 41 42.7848 41H47.2588C47.6317 41 47.898 40.7337 47.898 40.3609V27.0453C47.898 26.6192 48.111 26.4061 48.5371 26.4061H106.913C107.339 26.4061 107.552 26.6192 107.552 27.0453V40.3609C107.552 40.7869 107.765 41 108.244 41H112.665C113.144 41 113.357 40.7869 113.357 40.3609V1.69241Z" stroke="white" stroke-width="2" mask="url(#path-1-outside-1_331:255)"/>
<path d="M145.132 19.0559C142.149 12.0786 138.954 4.83489 138.048 2.75766L137.409 1.31957C137.356 1.15979 137.196 1.05326 136.983 1.05326H133.414C133.201 1.05326 133.042 1.15979 132.935 1.31957L132.296 2.75766C131.39 4.83489 128.248 12.0786 125.265 19.0559C123.188 23.9028 121.164 28.6431 119.779 31.6791C118.661 34.1824 118.501 37.2716 118.501 40.4674C118.501 40.787 118.661 40.9467 118.98 40.9467L123.774 41L123.987 40.8402C124.147 40.6804 124.253 40.6804 124.253 40.5206C124.253 38.8695 124.413 35.6738 125.105 34.0226C125.372 33.4367 125.585 32.7976 125.958 32.1052C126.011 31.8921 126.171 31.7856 126.437 31.7856H143.96C144.173 31.7856 144.333 31.8921 144.386 32.1052C144.759 32.7976 144.972 33.4367 145.239 34.0226C146.038 35.727 146.091 37.964 146.091 40.5206C146.091 40.8402 146.251 41 146.623 41H151.364C151.737 41 151.896 40.8402 151.896 40.5206C151.896 37.3249 151.737 34.3955 150.565 31.6791L145.132 19.0559ZM129.366 25.98C128.994 25.98 128.727 25.6605 128.887 25.2876C129.473 24.0093 130.006 22.731 130.591 21.2929L134.693 11.7057C134.906 11.2796 135.492 11.2796 135.651 11.7057C136.876 14.5286 138.368 17.9374 139.806 21.3462C140.392 22.6778 140.871 24.0093 141.457 25.2876C141.617 25.6605 141.404 25.98 141.031 25.98H129.366Z" stroke="white" stroke-width="2" mask="url(#path-1-outside-1_331:255)"/>
<path d="M165.549 1.79893C165.549 1.31957 165.336 1.10653 164.857 1.10653H149.517C149.038 1.10653 148.825 1.31957 148.825 1.79893V6.16644C148.825 6.64581 149.038 6.85886 149.517 6.85886H153.619C154.098 6.85886 154.311 7.07191 154.311 7.55127V40.3076C154.311 40.7869 154.524 41 155.004 41H159.371C159.85 41 160.063 40.7869 160.063 40.3076V7.55127C160.063 7.07191 160.276 6.85886 160.756 6.85886H164.857C165.336 6.85886 165.549 6.64581 165.549 6.16644V1.79893Z" stroke="white" stroke-width="2" mask="url(#path-1-outside-1_331:255)"/>
<path d="M235.379 7.498C235.379 7.12517 235.646 6.85886 236.018 6.85886H264.674C265.046 6.85886 265.259 6.64581 265.259 6.27297V1.69241C265.259 1.31957 265.046 1.10653 264.674 1.10653H200.333C199.96 1.10653 199.747 1.31957 199.747 1.69241V6.27297C199.747 6.64581 199.96 6.85886 200.333 6.85886H229.041C229.414 6.85886 229.627 7.07191 229.627 7.498V34.6085C229.627 34.9814 229.414 35.2477 229.041 35.2477H200.333C199.96 35.2477 199.747 35.4607 199.747 35.8336V40.4141C199.747 40.787 199.96 41 200.333 41H264.674C265.046 41 265.259 40.787 265.259 40.4141V35.8336C265.259 35.4607 265.046 35.2477 264.674 35.2477H236.018C235.646 35.2477 235.379 34.9814 235.379 34.6085V7.498Z" stroke="white" stroke-width="2" mask="url(#path-1-outside-1_331:255)"/>
<path d="M342.536 41C348.927 41 354.094 35.9933 354.094 29.8682C354.094 28.004 353.348 23.4767 350.472 22.0386L350.259 21.9321L278.035 15.0613C277.769 15.008 277.556 14.8482 277.449 14.6352C277.077 13.9427 276.81 12.8242 276.81 12.1318C276.81 9.2024 279.42 6.80559 282.616 6.80559H342.536C345.732 6.80559 348.342 9.2024 348.342 12.1318V14.1025C348.342 14.5819 348.608 14.8482 349.087 14.8482H353.401C353.881 14.8482 354.094 14.5819 354.094 14.1025V12.1318C354.094 6.00666 348.927 1 342.536 1H282.616C276.224 1 271.058 6.00666 271.058 12.1318C271.058 13.9427 272.07 18.257 274.733 20.0146L274.893 20.1212L347.17 27.0453C347.436 27.0453 347.596 27.1518 347.756 27.4181C348.022 28.1105 348.342 29.229 348.342 29.8682C348.342 32.8509 345.732 35.2477 342.536 35.2477H282.616C279.42 35.2477 276.81 32.8509 276.81 29.8682V27.7909C276.81 27.3116 276.597 27.0985 276.118 27.0985H271.75C271.271 27.0985 271.058 27.3116 271.058 27.7909V29.8682C271.058 35.9933 276.224 41 282.616 41H342.536Z" stroke="white" stroke-width="2" mask="url(#path-1-outside-1_331:255)"/>
<path d="M17.8 63.7H4.6V59.5H2.8V70H4.6V65.2H17.8V70H19.6V59.5H17.8V63.7ZM37.7223 59.5L31.7073 63.985L25.6923 59.5H22.9623L30.8073 65.335V70H32.6073V65.335L40.4523 59.5H37.7223ZM43.8133 59.5V70H45.6133V66.25H53.7133C60.4333 66.25 62.1133 65.575 62.1133 62.875C62.1133 60.175 60.4333 59.5 53.7133 59.5H43.8133ZM45.6133 64.75V61H53.7133C59.3683 61 60.3133 61.27 60.3133 62.875C60.3133 64.48 59.3683 64.75 53.7133 64.75H45.6133ZM82.6586 59.5H66.4586V70H82.6586V68.5H68.2586V65.2H80.3486V63.7H68.2586V61H82.6586V59.5ZM103.656 67.39C103.251 66.445 102.681 65.875 101.496 65.56C103.956 65.215 104.706 64.435 104.706 62.875C104.706 60.175 103.026 59.5 96.3063 59.5H87.0063V70H88.8063V66.25H96.9063C100.656 66.25 101.376 66.49 102.006 67.975C102.726 69.685 103.386 70.12 105.306 70.12V68.62C104.346 68.62 104.106 68.44 103.656 67.39ZM88.8063 64.75V61H96.3063C101.961 61 102.906 61.27 102.906 62.875C102.906 64.48 101.961 64.75 96.3063 64.75H88.8063ZM118.266 68.665L109.971 59.5H107.766L117.291 70H119.241L128.766 59.5H126.561L118.266 68.665ZM132.661 70H134.461V59.5H132.661V70ZM154.967 64.15C155.897 63.76 156.212 63.145 156.212 62.2C156.212 60.04 154.742 59.5 148.877 59.5H139.802V70H148.877C156.257 70 158.102 69.37 158.102 66.85C158.102 65.335 157.367 64.54 154.967 64.15ZM148.877 61C153.617 61 154.412 61.165 154.412 62.2C154.412 63.355 153.617 63.55 148.877 63.55H141.602V61H148.877ZM141.602 68.5V65.05H148.877C155.237 65.05 156.302 65.305 156.302 66.85C156.302 68.26 155.237 68.5 148.877 68.5H141.602ZM178.647 59.5H162.447V70H178.647V68.5H164.247V65.2H176.337V63.7H164.247V61H178.647V59.5ZM202.315 63.1C202.315 59.98 200.365 59.2 192.565 59.2C185.005 59.2 183.115 59.8 183.115 62.2C183.115 64.72 185.065 65.35 192.865 65.35C199.675 65.35 200.815 65.635 200.815 67.3C200.815 68.59 199.63 68.8 192.565 68.8C185.755 68.8 184.615 68.455 184.615 66.4H182.815C182.815 69.52 184.765 70.3 192.565 70.3C200.605 70.3 202.615 69.7 202.615 67.3C202.615 64.54 200.665 63.85 192.865 63.85C186.055 63.85 184.915 63.61 184.915 62.2C184.915 60.91 186.01 60.7 192.565 60.7C199.375 60.7 200.515 61.045 200.515 63.1H202.315Z" fill="white"/>
</svg>
