<svg width="445" height="61" viewBox="0 0 445 61" fill="none" xmlns="http://www.w3.org/2000/svg">
<path d="M110.799 24.616C110.831 24.872 110.991 25 111.247 25L113.935 24.872C114.159 24.84 114.319 24.68 114.351 24.456C114.383 23.944 114.575 23.464 114.703 23.24C115.567 21.96 117.007 19.816 118.351 17.896L119.375 16.424C119.535 16.168 119.919 16.168 120.079 16.424L121.103 17.896C122.447 19.816 123.823 21.992 124.751 23.24C124.911 23.464 124.975 24.008 124.975 24.488C124.975 24.712 125.135 24.872 125.423 24.904C126.671 25 127.343 25 127.727 25H128.207C128.239 25 128.303 25 128.335 24.968C128.399 24.936 128.431 24.872 128.463 24.712L131.151 1.48002C131.183 1.22402 130.959 1.00002 130.703 1.00002H128.143C127.887 1.00002 127.727 1.12802 127.695 1.38402L125.839 17.32C125.743 17.704 125.263 17.864 125.039 17.512L123.983 15.944C122.735 14.12 121.615 12.52 121.231 11.976L120.847 11.432C120.783 11.336 120.655 11.272 120.495 11.272H118.959C118.831 11.272 118.703 11.336 118.607 11.432L118.223 11.976C117.839 12.52 116.687 14.12 115.471 15.944C115.055 16.552 114.671 17.16 114.255 17.768C114.031 18.12 113.551 17.96 113.455 17.544L111.599 1.38402C111.567 1.12802 111.407 1.00002 111.151 1.00002H108.591C108.335 1.00002 108.111 1.22402 108.143 1.48002L110.799 24.616Z" fill="white"/>
<path d="M175.644 1.38402C175.644 1.16002 175.452 1.00002 175.228 1.00002H172.572C172.348 1.00002 172.156 1.16002 172.156 1.38402V12.36C172.156 12.616 172.028 12.744 171.772 12.744H136.7C136.444 12.744 136.316 12.616 136.316 12.36V1.38402C136.316 1.16002 136.156 1.00002 135.932 1.00002H133.244C132.956 1.00002 132.828 1.12802 132.828 1.38402V24.616C132.828 24.872 132.956 25 133.244 25H135.932C136.156 25 136.316 24.84 136.316 24.616V16.616C136.316 16.36 136.444 16.232 136.7 16.232H171.772C172.028 16.232 172.156 16.36 172.156 16.616V24.616C172.156 24.872 172.284 25 172.572 25H175.228C175.516 25 175.644 24.872 175.644 24.616V1.38402Z" fill="white"/>
<path d="M194.734 11.816C192.942 7.62402 191.022 3.27202 190.478 2.02402L190.094 1.16002C190.062 1.06402 189.966 1.00002 189.838 1.00002H187.694C187.566 1.00002 187.47 1.06402 187.406 1.16002L187.022 2.02402C186.478 3.27202 184.59 7.62402 182.798 11.816C181.55 14.728 180.334 17.576 179.502 19.4C178.83 20.904 178.734 22.76 178.734 24.68C178.734 24.872 178.83 24.968 179.022 24.968L181.902 25L182.03 24.904C182.126 24.808 182.19 24.808 182.19 24.712C182.19 23.72 182.286 21.8 182.702 20.808C182.862 20.456 182.99 20.072 183.214 19.656C183.246 19.528 183.342 19.464 183.502 19.464H194.03C194.158 19.464 194.254 19.528 194.286 19.656C194.51 20.072 194.638 20.456 194.798 20.808C195.278 21.832 195.31 23.176 195.31 24.712C195.31 24.904 195.406 25 195.63 25H198.478C198.702 25 198.798 24.904 198.798 24.712C198.798 22.792 198.702 21.032 197.998 19.4L194.734 11.816ZM185.262 15.976C185.038 15.976 184.878 15.784 184.974 15.56C185.326 14.792 185.646 14.024 185.998 13.16L188.462 7.40002C188.59 7.14402 188.942 7.14402 189.038 7.40002C189.774 9.09602 190.67 11.144 191.534 13.192C191.886 13.992 192.174 14.792 192.526 15.56C192.622 15.784 192.494 15.976 192.27 15.976H185.262Z" fill="white"/>
<path d="M207.001 1.44802C207.001 1.16002 206.873 1.03202 206.585 1.03202H197.369C197.081 1.03202 196.953 1.16002 196.953 1.44802V4.07202C196.953 4.36002 197.081 4.48802 197.369 4.48802H199.833C200.121 4.48802 200.249 4.61602 200.249 4.90402V24.584C200.249 24.872 200.377 25 200.665 25H203.289C203.577 25 203.705 24.872 203.705 24.584V4.90402C203.705 4.61602 203.833 4.48802 204.121 4.48802H206.585C206.873 4.48802 207.001 4.36002 207.001 4.07202V1.44802Z" fill="white"/>
<path d="M248.955 4.87202C248.955 4.64802 249.115 4.48802 249.339 4.48802H266.555C266.779 4.48802 266.907 4.36002 266.907 4.13602V1.38402C266.907 1.16002 266.779 1.03202 266.555 1.03202H227.899C227.675 1.03202 227.547 1.16002 227.547 1.38402V4.13602C227.547 4.36002 227.675 4.48802 227.899 4.48802H245.147C245.371 4.48802 245.499 4.61602 245.499 4.87202V21.16C245.499 21.384 245.371 21.544 245.147 21.544H227.899C227.675 21.544 227.547 21.672 227.547 21.896V24.648C227.547 24.872 227.675 25 227.899 25H266.555C266.779 25 266.907 24.872 266.907 24.648V21.896C266.907 21.672 266.779 21.544 266.555 21.544H249.339C249.115 21.544 248.955 21.384 248.955 21.16V4.87202Z" fill="white"/>
<path d="M313.335 25C317.175 25 320.279 21.992 320.279 18.312C320.279 17.192 319.831 14.472 318.103 13.608L317.975 13.544L274.583 9.41602C274.423 9.38402 274.295 9.28802 274.231 9.16002C274.007 8.74402 273.847 8.07202 273.847 7.65602C273.847 5.89602 275.415 4.45602 277.335 4.45602H313.335C315.255 4.45602 316.823 5.89602 316.823 7.65602V8.84002C316.823 9.12802 316.983 9.28802 317.271 9.28802H319.863C320.151 9.28802 320.279 9.12802 320.279 8.84002V7.65602C320.279 3.97602 317.175 0.968018 313.335 0.968018H277.335C273.495 0.968018 270.391 3.97602 270.391 7.65602C270.391 8.74402 270.999 11.336 272.599 12.392L272.695 12.456L316.119 16.616C316.279 16.616 316.375 16.68 316.471 16.84C316.631 17.256 316.823 17.928 316.823 18.312C316.823 20.104 315.255 21.544 313.335 21.544H277.335C275.415 21.544 273.847 20.104 273.847 18.312V17.064C273.847 16.776 273.719 16.648 273.431 16.648H270.807C270.519 16.648 270.391 16.776 270.391 17.064V18.312C270.391 21.992 273.495 25 277.335 25H313.335Z" fill="white"/>
<path d="M43.0035 37.384C43.0035 37.16 42.8115 37 42.5875 37H39.9315C39.7075 37 39.5155 37.16 39.5155 37.384V48.36C39.5155 48.616 39.3875 48.744 39.1315 48.744H4.0595C3.8035 48.744 3.6755 48.616 3.6755 48.36V37.384C3.6755 37.16 3.5155 37 3.2915 37H0.6035C0.3155 37 0.1875 37.128 0.1875 37.384V60.616C0.1875 60.872 0.3155 61 0.6035 61H3.2915C3.5155 61 3.6755 60.84 3.6755 60.616V52.616C3.6755 52.36 3.8035 52.232 4.0595 52.232H39.1315C39.3875 52.232 39.5155 52.36 39.5155 52.616V60.616C39.5155 60.872 39.6435 61 39.9315 61H42.5875C42.8755 61 43.0035 60.872 43.0035 60.616V37.384Z" fill="white"/>
<path d="M58.7018 37C58.4778 37 58.3498 37.096 58.3498 37.32C58.2537 38.056 58.1578 39.016 58.0618 39.176C57.2938 40.36 56.0137 42.44 54.8937 44.264L54.2217 45.352C54.0617 45.608 53.7417 45.608 53.6138 45.352L52.9417 44.264C51.8218 42.44 50.5098 40.36 49.7417 39.176C49.5817 38.92 49.5498 37.96 49.5498 37.352C49.5498 37.128 49.4217 37 49.1978 37H46.4458C46.2218 37 46.0938 37.128 46.0938 37.384C46.0938 38.472 46.2218 40.104 46.8618 41.064C47.6298 42.184 48.8458 44.264 49.9658 46.088C50.8618 47.592 51.6297 48.808 52.1097 49.544C52.1418 49.64 52.1738 49.704 52.1738 49.736V60.616C52.1738 60.84 52.3018 60.968 52.5257 60.968H55.2777C55.5017 60.968 55.6297 60.84 55.6297 60.616V49.736C55.6297 49.704 55.6618 49.64 55.6937 49.544C56.1737 48.808 56.9098 47.56 57.8377 46.088L60.9738 41.064C61.4858 40.232 61.7098 38.44 61.7098 37.352C61.7418 37.128 61.6458 37 61.3577 37H58.7018Z" fill="white"/>
<path d="M65.832 37.064V37.096H65.544C65.256 37.096 65 37.352 65 37.64V60.456C65.032 60.552 65.096 60.648 65.16 60.744C65.288 60.904 65.416 61 65.544 61H67.944C68.296 61 68.456 60.808 68.456 60.456V52.968C68.456 52.68 68.712 52.456 69 52.456H117.384C121.064 52.456 124.04 49.512 124.04 46.024V43.496C124.04 39.944 121.064 37.064 117.384 37.064H65.832ZM120.616 46.024C120.616 47.656 119.144 49 117.384 49H69C68.712 49 68.456 48.744 68.456 48.456V41.064C68.456 40.712 68.712 40.52 69 40.52H117.384C119.144 40.52 120.616 41.864 120.616 43.496V46.024Z" fill="white"/>
<path d="M131.268 40.968C131.268 40.68 131.396 40.552 131.684 40.552H169.412C169.7 40.552 169.828 40.424 169.828 40.168V37.544C169.828 37.256 169.7 37.128 169.412 37.128H128.26C127.972 37.128 127.844 37.256 127.844 37.544V60.584C127.844 60.872 127.972 61 128.26 61H169.412C169.7 61 169.828 60.872 169.828 60.584V57.96C169.828 57.704 169.7 57.576 169.412 57.576H131.684C131.396 57.576 131.268 57.448 131.268 57.16V52.648C131.268 52.36 131.396 52.232 131.684 52.232H165.86C166.116 52.232 166.244 52.104 166.244 51.816V49.192C166.244 48.936 166.116 48.808 165.86 48.808H131.684C131.396 48.808 131.268 48.68 131.268 48.392V40.968Z" fill="white"/>
<path d="M218.435 54.504C218.339 54.344 218.243 54.28 218.211 54.248L215.843 51.624C215.619 51.368 215.683 51.016 215.971 50.792C217.891 49.672 219.107 47.624 219.107 45.32V43.464C219.107 39.88 216.099 36.968 212.387 36.968H173.763C173.411 36.968 173.219 37.224 173.219 37.512V60.456C173.219 60.808 173.411 61 173.763 61H176.163C176.451 61 176.707 60.808 176.707 60.456V52.328C176.707 51.976 176.867 51.816 177.219 51.816H211.075C211.235 51.816 211.363 51.88 211.459 51.976L215.555 56.488C215.587 56.52 215.619 56.552 215.619 56.552C215.843 56.968 216.131 57.608 216.131 58.216V60.456C216.131 60.744 216.387 61 216.675 61H219.075C219.427 61 219.619 60.808 219.619 60.456V58.248C219.619 56.36 218.595 54.76 218.435 54.504ZM176.707 40.968C176.707 40.616 176.867 40.456 177.219 40.456H212.387C214.179 40.456 215.619 41.8 215.619 43.464V45.32C215.619 46.984 214.179 48.328 212.387 48.328H177.219C176.867 48.328 176.707 48.136 176.707 47.784V40.968Z" fill="white"/>
<path d="M232.826 61C232.986 61 233.082 60.936 233.178 60.776L233.53 59.976L236.73 52.072C238.17 48.552 239.578 44.84 240.346 43.08C240.858 41.896 240.954 38.536 240.954 37.384C240.986 37.16 240.794 37 240.57 37H237.914C237.69 37 237.53 37.16 237.53 37.384C237.53 38.376 237.466 41.064 237.178 41.768C236.442 43.56 234.97 47.208 233.53 50.792C233.05 51.944 232.602 53.096 232.186 54.152C232.058 54.504 231.578 54.472 231.45 54.12L230.65 51.944C229.242 48.104 227.578 43.752 226.746 41.768C226.458 41.064 226.394 38.376 226.394 37.384C226.394 37.128 226.266 37 225.978 37H223.354C223.066 37 222.938 37.128 222.938 37.384C222.938 38.536 223.098 41.896 223.578 43.08C224.378 45.064 226.01 49.288 227.418 53.128C228.698 56.552 229.658 59.176 230.01 59.976L230.362 60.776C230.426 60.936 230.554 61 230.746 61H232.826Z" fill="white"/>
<path d="M265.814 40.872C265.814 40.648 265.974 40.488 266.198 40.488H283.414C283.638 40.488 283.766 40.36 283.766 40.136V37.384C283.766 37.16 283.638 37.032 283.414 37.032H244.758C244.534 37.032 244.406 37.16 244.406 37.384V40.136C244.406 40.36 244.534 40.488 244.758 40.488H262.006C262.23 40.488 262.358 40.616 262.358 40.872V57.16C262.358 57.384 262.23 57.544 262.006 57.544H244.758C244.534 57.544 244.406 57.672 244.406 57.896V60.648C244.406 60.872 244.534 61 244.758 61H283.414C283.638 61 283.766 60.872 283.766 60.648V57.896C283.766 57.672 283.638 57.544 283.414 57.544H266.198C265.974 57.544 265.814 57.384 265.814 57.16V40.872Z" fill="white"/>
<path d="M291.435 46.152C291.147 46.152 291.019 46.024 291.019 45.736V40.904C291.019 40.616 291.147 40.488 291.435 40.488H321.515C322.571 40.488 323.435 41.256 323.435 42.248V44.424C323.435 45.352 322.571 46.152 321.515 46.152H321.131H291.435ZM291.019 50.024C291.019 49.768 291.147 49.64 291.435 49.64H321.131C322.923 49.64 324.395 50.984 324.395 52.648V54.504C324.395 56.168 322.923 57.512 321.131 57.512H291.435C291.147 57.512 291.019 57.384 291.019 57.096V50.024ZM321.131 61C324.843 61 327.883 58.088 327.883 54.504V52.648C327.883 50.856 327.147 49.224 325.899 48.04C325.739 47.88 325.707 47.72 325.867 47.528C326.571 46.632 326.923 45.608 326.923 44.424V42.248C326.923 39.368 324.459 37.032 321.515 37.032H289.867L287.947 37C287.659 37 287.531 37.128 287.531 37.416V60.584C287.563 60.68 287.627 60.744 287.659 60.808C287.755 60.936 287.851 61 287.947 61H321.131Z" fill="white"/>
<path d="M334.987 40.968C334.987 40.68 335.115 40.552 335.402 40.552H373.13C373.418 40.552 373.547 40.424 373.547 40.168V37.544C373.547 37.256 373.418 37.128 373.13 37.128H331.978C331.69 37.128 331.562 37.256 331.562 37.544V60.584C331.562 60.872 331.69 61 331.978 61H373.13C373.418 61 373.547 60.872 373.547 60.584V57.96C373.547 57.704 373.418 57.576 373.13 57.576H335.402C335.115 57.576 334.987 57.448 334.987 57.16V52.648C334.987 52.36 335.115 52.232 335.402 52.232H369.578C369.835 52.232 369.962 52.104 369.962 51.816V49.192C369.962 48.936 369.835 48.808 369.578 48.808H335.402C335.115 48.808 334.987 48.68 334.987 48.392V40.968Z" fill="white"/>
<path d="M420.632 61C424.471 61 427.576 57.992 427.576 54.312C427.576 53.192 427.128 50.472 425.4 49.608L425.272 49.544L381.879 45.416C381.719 45.384 381.591 45.288 381.527 45.16C381.303 44.744 381.143 44.072 381.143 43.656C381.143 41.896 382.711 40.456 384.632 40.456H420.632C422.552 40.456 424.12 41.896 424.12 43.656V44.84C424.12 45.128 424.28 45.288 424.568 45.288H427.16C427.448 45.288 427.576 45.128 427.576 44.84V43.656C427.576 39.976 424.471 36.968 420.632 36.968H384.632C380.792 36.968 377.688 39.976 377.688 43.656C377.688 44.744 378.296 47.336 379.896 48.392L379.991 48.456L423.415 52.616C423.576 52.616 423.672 52.68 423.768 52.84C423.928 53.256 424.12 53.928 424.12 54.312C424.12 56.104 422.552 57.544 420.632 57.544H384.632C382.711 57.544 381.143 56.104 381.143 54.312V53.064C381.143 52.776 381.016 52.648 380.728 52.648H378.103C377.815 52.648 377.688 52.776 377.688 53.064V54.312C377.688 57.992 380.792 61 384.632 61H420.632Z" fill="white"/>
<path d="M444.964 43.624C444.964 42.056 444.804 40.872 444.484 40.072C444.036 38.856 443.172 37.992 441.924 37.48C441.124 37.128 439.844 36.968 438.116 36.968C436.292 36.968 434.948 37.096 434.084 37.352C432.452 37.8 431.364 38.792 430.884 40.296C430.628 41.096 430.5 42.376 430.5 44.136V44.872C430.5 45.224 430.756 45.512 431.108 45.512H433.284C433.636 45.512 433.924 45.224 433.924 44.872V44.072C433.924 41.896 434.276 41.192 434.532 40.968C434.692 40.808 435.396 40.392 437.892 40.392C440.036 40.392 440.74 40.744 440.9 40.904C441.156 41.064 441.54 41.768 441.54 43.816C441.54 45.384 441.444 45.928 441.348 46.152C441.188 46.632 440.708 47.08 439.94 47.4C436.964 48.616 436.228 49.128 435.972 49.48C435.492 50.024 435.204 50.76 435.076 51.688C434.98 52.072 435.044 52.776 434.948 53.832L434.916 54.248C434.916 54.408 435.012 54.504 435.172 54.504H438.212C438.372 54.504 438.468 54.408 438.468 54.248V53.896C438.468 52.52 438.596 52.232 438.596 52.136C438.596 52.04 438.788 51.688 440.26 51.112C441.604 50.568 441.892 50.472 441.924 50.472C443.172 49.896 444.036 48.968 444.516 47.656C444.804 46.792 444.964 45.512 444.964 43.624ZM438.468 56.936C438.468 56.776 438.404 56.68 438.244 56.68H435.076C434.916 56.68 434.82 56.776 434.82 56.936V60.744C434.82 60.904 434.916 61 435.076 61H438.244C438.404 61 438.468 60.904 438.468 60.744V56.936Z" fill="white"/>
</svg>
