<svg width="11" height="13" viewBox="0 0 11 13" fill="none" xmlns="http://www.w3.org/2000/svg">
<path d="M6.72059 1.21425L6.72058 1.21426C6.7708 1.32127 6.84762 1.48404 6.94502 1.6904C7.31804 2.48072 7.99286 3.91049 8.63102 5.29715C8.63109 5.29732 8.63117 5.29748 8.63124 5.29764L10.0946 8.45607C10.0947 8.45617 10.0947 8.45628 10.0948 8.45638C10.0948 8.45641 10.0948 8.45644 10.0948 8.45647C10.4602 9.24356 10.5 10.0735 10.5 10.88C10.5 11.0079 10.463 11.2024 10.2914 11.3496C10.1365 11.4823 9.95808 11.5 9.85646 11.5H8.57895C8.47732 11.5 8.29888 11.4823 8.14404 11.3496C7.9724 11.2024 7.93541 11.0079 7.93541 10.88C7.93541 10.2129 7.91141 9.77989 7.75936 9.47859L7.7566 9.47312L7.75663 9.4731C7.7121 9.3821 7.68398 9.31702 7.65943 9.26019C7.64937 9.23693 7.63992 9.21504 7.63018 9.19333H3.35546C3.34573 9.21504 3.33627 9.23692 3.32622 9.26018C3.30241 9.3153 3.27525 9.37817 3.23301 9.46492C3.17475 9.59755 3.12456 9.83254 3.09197 10.1225C3.0604 10.4034 3.05024 10.6876 3.05024 10.88C3.05024 10.9524 3.03653 11.0456 2.98535 11.1407C2.93658 11.2313 2.87348 11.2861 2.84195 11.3112C2.83243 11.3187 2.81783 11.3294 2.80747 11.3368L2.79305 11.3502L2.76427 11.3703L2.70685 11.4103L2.57571 11.5016L2.41589 11.5L1.12591 11.4867L1.12403 11.4866L1.12919 10.9867L6.72059 1.21425ZM6.72059 1.21425L6.71897 1.21086M6.72059 1.21425L6.71897 1.21086M6.71897 1.21086L6.55373 0.865507L6.71897 1.21086ZM4.71444 6.27168L5.49536 4.57596C5.74756 5.11533 6.02032 5.70094 6.28638 6.28676L6.28632 6.28679L6.28976 6.29404C6.35781 6.43771 6.42038 6.58168 6.48616 6.73303C6.48717 6.73535 6.48818 6.73767 6.48919 6.74H4.50601C4.57485 6.58841 4.64351 6.43335 4.71444 6.27168Z" stroke="white"/>
</svg>
