<svg width="20" height="18" viewBox="0 0 20 18" fill="none" xmlns="http://www.w3.org/2000/svg">
<path fill-rule="evenodd" clip-rule="evenodd" d="M12 1C12 1.55228 11.5523 2 11 2C10.4477 2 10 1.55228 10 1C10 0.447715 10.4477 0 11 0C11.5523 0 12 0.447715 12 1ZM16 5C16 5.55228 15.5523 6 15 6C14.4477 6 14 5.55228 14 5C14 4.44772 14.4477 4 15 4C15.5523 4 16 4.44772 16 5ZM15 10C15.5523 10 16 9.55229 16 9C16 8.8408 15.9628 8.69029 15.8966 8.55668L14.191 9.58797C14.3728 9.83769 14.6675 10 15 10ZM14.1818 8.42499L14.871 8.00825C14.5864 8.0449 14.3393 8.20116 14.1818 8.42499ZM7.73565 12.3226L6.05818 13.3369C6.02051 13.2316 6 13.1182 6 13C6 12.4477 6.44772 12 7 12C7.29097 12 7.55291 12.1243 7.73565 12.3226ZM6.90204 13.9953L7.92713 13.3754C7.77868 13.7417 7.4195 14 7 14C6.96695 14 6.93427 13.9984 6.90204 13.9953ZM2.00083 16.9588L3.42789 16.0959C3.76611 16.2563 4 16.6008 4 17C4 17.5523 3.55228 18 3 18C2.44772 18 2 17.5523 2 17C2 16.9862 2.00028 16.9725 2.00083 16.9588ZM8 17C8 17.5523 7.55228 18 7 18C6.44772 18 6 17.5523 6 17C6 16.4477 6.44772 16 7 16C7.55228 16 8 16.4477 8 17ZM16 17C16 17.5523 15.5523 18 15 18C14.4477 18 14 17.5523 14 17C14 16.4477 14.4477 16 15 16C15.5523 16 16 16.4477 16 17ZM11 18C11.5523 18 12 17.5523 12 17C12 16.4477 11.5523 16 11 16C10.4477 16 10 16.4477 10 17C10 17.5523 10.4477 18 11 18ZM15 14C15.5523 14 16 13.5523 16 13C16 12.4477 15.5523 12 15 12C14.4477 12 14 12.4477 14 13C14 13.5523 14.4477 14 15 14ZM12 13C12 13.5523 11.5523 14 11 14C10.4477 14 10 13.5523 10 13C10 12.4477 10.4477 12 11 12C11.5523 12 12 12.4477 12 13ZM7 10C7.55228 10 8 9.55229 8 9C8 8.44771 7.55228 8 7 8C6.44772 8 6 8.44771 6 9C6 9.55229 6.44772 10 7 10ZM19 18C19.5523 18 20 17.5523 20 17C20 16.4477 19.5523 16 19 16C18.4477 16 18 16.4477 18 17C18 17.5523 18.4477 18 19 18ZM12 9C12 9.55229 11.5523 10 11 10C10.4477 10 10 9.55229 10 9C10 8.44771 10.4477 8 11 8C11.5523 8 12 8.44771 12 9ZM11 6C11.5523 6 12 5.55228 12 5C12 4.44772 11.5523 4 11 4C10.4477 4 10 4.44772 10 5C10 5.55228 10.4477 6 11 6Z" fill="#9A9A9A"/>
<path fill-rule="evenodd" clip-rule="evenodd" d="M20 5.76465L0.470009 17.381L0 16.6163L19.53 5L20 5.76465Z" fill="#9A9A9A"/>
</svg>
