<svg width="18" height="18" viewBox="0 0 18 18" fill="none" xmlns="http://www.w3.org/2000/svg">
<path fill-rule="evenodd" clip-rule="evenodd" d="M9 2C9.55229 2 10 1.55228 10 1C10 0.447715 9.55229 0 9 0C8.44771 0 8 0.447715 8 1C8 1.55228 8.44771 2 9 2ZM13 6C13.5523 6 14 5.55228 14 5C14 4.44772 13.5523 4 13 4C12.4477 4 12 4.44772 12 5C12 5.55228 12.4477 6 13 6ZM14 9C14 9.55229 13.5523 10 13 10C12.4477 10 12 9.55229 12 9C12 8.44771 12.4477 8 13 8C13.5523 8 14 8.44771 14 9ZM5 14C5.55228 14 6 13.5523 6 13C6 12.4477 5.55228 12 5 12C4.44772 12 4 12.4477 4 13C4 13.5523 4.44772 14 5 14ZM5 18C5.55228 18 6 17.5523 6 17C6 16.4477 5.55228 16 5 16C4.44772 16 4 16.4477 4 17C4 17.5523 4.44772 18 5 18ZM13 18C13.5523 18 14 17.5523 14 17C14 16.4477 13.5523 16 13 16C12.4477 16 12 16.4477 12 17C12 17.5523 12.4477 18 13 18ZM10 17C10 17.5523 9.55229 18 9 18C8.44771 18 8 17.5523 8 17C8 16.4477 8.44771 16 9 16C9.55229 16 10 16.4477 10 17ZM14 13C14 13.5523 13.5523 14 13 14C12.4477 14 12 13.5523 12 13C12 12.4477 12.4477 12 13 12C13.5523 12 14 12.4477 14 13ZM9 14C9.55229 14 10 13.5523 10 13C10 12.4477 9.55229 12 9 12C8.44771 12 8 12.4477 8 13C8 13.5523 8.44771 14 9 14ZM6 9C6 9.55229 5.55228 10 5 10C4.44772 10 4 9.55229 4 9C4 8.44771 4.44772 8 5 8C5.55228 8 6 8.44771 6 9ZM1 18C1.55228 18 2 17.5523 2 17C2 16.4477 1.55228 16 1 16C0.447715 16 0 16.4477 0 17C0 17.5523 0.447715 18 1 18ZM18 17C18 17.5523 17.5523 18 17 18C16.4477 18 16 17.5523 16 17C16 16.4477 16.4477 16 17 16C17.5523 16 18 16.4477 18 17ZM9 10C9.55229 10 10 9.55229 10 9C10 8.44771 9.55229 8 9 8C8.44771 8 8 8.44771 8 9C8 9.55229 8.44771 10 9 10ZM10 5C10 5.55228 9.55229 6 9 6C8.44771 6 8 5.55228 8 5C8 4.44772 8.44771 4 9 4C9.55229 4 10 4.44772 10 5Z" fill="#BCFF67"/>
</svg>
